<svg xmlns="http://www.w3.org/2000/svg" fill="none" viewBox="0 0 1024 1024" height="1024" width="1024">
<rect fill="white" height="1024" width="1024"></rect>
<path fill="white" d="M696.594 393.53C697.408 397.577 697.958 401.669 698.596 405.783C715.865 396.148 738.039 394.872 755.593 404.463C762.215 408.049 764.283 415.99 766.175 422.721C766.373 431.015 771.784 442.014 781.771 439.242C783.179 445.424 784.455 451.671 785.225 458.007C781.507 467.686 775.128 475.935 769.1 484.251C763.535 491.796 761.071 500.969 759.355 510.054C738.391 490.894 717.426 471.778 696.528 452.551C696.616 432.885 697.1 413.196 696.594 393.53Z"></path>
<path fill="white" d="M781.287 397.489C781.771 397.049 782.739 396.169 783.223 395.729C785.401 402.087 779.571 410.754 772.466 407.543C775.216 404.001 778.009 400.525 781.287 397.489Z"></path>
<path fill="white" d="M175.83 419.4C183.442 414.208 190.239 429.761 181.572 432.181C174.268 433.853 169.715 423.492 175.83 419.4Z"></path>
<path fill="white" d="M375.882 430.245C398.76 424.306 422.101 420.214 445.507 417.156C459.959 415.243 473.488 432.137 466.515 445.578C418.119 452.948 369.723 462.165 323.416 478.421C314.045 481.567 304.96 485.747 295.127 487.419C290.705 479.169 295.259 470.568 299.152 463.155C303.288 456.115 309.558 449.538 317.895 447.954C337.473 442.872 356.392 435.635 375.882 430.245Z"></path>
<path fill="white" d="M496.653 699.416C500.062 705.751 505.65 710.415 511.523 714.396C513.899 718.202 516.253 722.008 518.629 725.835C518.915 728.673 519.201 731.533 519.487 734.437C513.349 734.437 507.212 734.415 501.074 734.437C499.6 722.756 498.368 711.031 496.653 699.416Z"></path>
<path fill="#FCFEFF" d="M654.754 286.42C657.24 283.758 662.541 287.014 662.035 290.424C663.135 295.439 656.69 295.835 653.214 296.033C653.302 292.822 650.904 288.29 654.754 286.42Z"></path>
<path fill="#FCFEFF" d="M481.716 604.558C484.091 602.622 486.489 600.708 488.865 598.794C488.953 609.486 488.425 620.177 487.831 630.846C485.631 622.113 484.003 613.247 481.716 604.558Z"></path>
<path fill="#FCFEFF" d="M912.485 664.944C918.82 663.558 920.36 674.491 913.805 674.535C908.063 675.613 906.721 665.978 912.485 664.944Z"></path>
<path fill="#FCFEFF" d="M843.916 722.578C850.274 722.996 855.949 720.027 861.251 716.903C867.939 721.544 874.582 727.198 883.007 728.21C896.096 730.014 909.713 730.058 922.054 735.337C930.26 738.769 938.883 743.873 942.315 752.562C944.756 758.436 940.621 764.375 936.507 768.291C926.696 777.244 913.915 781.864 901.464 785.801C878.278 792.423 854.256 795.459 830.344 798.054C786.369 802.278 742.241 804.104 698.156 806.216C682.494 807.052 666.743 806.524 651.168 808.679C650.398 808.767 648.858 808.965 648.088 809.053C645.757 807.074 643.535 805.006 640.983 803.378C629.302 803.84 619.249 811.649 613.155 821.196C613.089 838.641 622.196 854.282 625.804 871.044C624.044 872.87 622.284 874.718 620.525 876.566C620.899 879.206 621.272 881.824 621.712 884.529C600.374 877.072 577.562 876.434 555.256 874.63C542.805 873.574 530.288 873.97 517.837 873.376C511.633 873.332 506.244 870.076 501.096 867.063C508.334 864.907 514.823 857.032 511.039 849.398C507.058 840.247 495.487 842.161 487.479 839.939C486.489 824.034 488.953 808.217 489.591 792.379C494.937 790.421 500.656 789.101 505.386 785.801C509.588 782.656 508.598 776.826 507.652 772.426C505.452 762.747 503.296 753.024 502.108 743.169C624.726 743.059 747.366 743.279 869.984 742.927C873.042 742.773 876.166 742.619 879.114 741.695C881.423 737.449 878.85 734.062 874.296 734.216C861.273 733.732 848.206 734.171 835.183 734.259C838.285 730.498 841.057 726.494 843.916 722.578ZM584.117 756.61C591.861 759.316 599.846 761.603 608.162 761.449C614.607 761.141 621.844 762.967 627.564 759.206C627.19 758.106 626.398 755.884 626.024 754.784C612.143 752.804 597.712 752.87 584.117 756.61ZM549.8 781.028C549.052 794.953 550.174 809.031 548.326 822.868C549.866 823.286 552.902 824.166 554.442 824.584C554.442 835.297 554.442 846.032 554.53 856.746C550.57 857.384 545.577 855.624 542.409 858.461C538.669 861.079 542.937 865.853 546.413 865.017C567.025 864.797 587.879 866.007 608.36 864.049C612.077 859.341 606.336 856.35 602.332 855.756C601.914 843.415 603.3 830.964 601.386 818.711C599.824 806.766 601.144 794.689 600.528 782.722C600.792 779.532 597.954 776.87 594.831 777.178C582.402 776.716 569.929 777.178 557.5 777.046C554.64 777.002 549.866 777.068 549.8 781.028Z"></path>
<path fill="#FCFEFF" d="M764.899 733.864C764.921 731.004 764.965 728.188 765.119 725.373C765.405 727.352 766.021 731.334 766.307 733.314C769.782 732.94 772.554 731.532 773.61 728.056C774.446 727.484 776.118 726.34 776.954 725.769C776.998 728.716 777.042 731.664 777.086 734.634C773.016 734.348 768.969 734.128 764.899 733.864Z"></path>
<path fill="#FEFEFE" d="M290.595 604.624C286.987 595.649 302.166 593.163 301.748 602.798C302.43 609.86 294.994 608.848 290.837 606.45L290.595 604.624Z"></path>
<path fill="#FFFFFE" d="M740.855 304.48C743.516 303.754 746.86 303.315 748.312 306.328C752.228 310.288 747.366 318.317 742.262 316.535C736.719 315.941 735.729 306.394 740.855 304.48Z"></path>
<path fill="#FFFFFE" d="M694.724 335.234C703.238 332.902 705.481 348.872 695.89 347.377C688.521 348.455 688.147 336.355 694.724 335.234Z"></path>
<path fill="#FFFFFE" d="M435.079 348.015C440.513 347.421 445.572 354.197 440.601 358.288C437.301 362.622 430.24 359.102 430.57 354.131C430.504 351.271 432.923 349.423 435.079 348.015Z"></path>
<path fill="#FFFFFE" d="M861.559 462.802C869.104 461.548 870.732 474.219 863.165 475.098C855.201 477.188 853.045 463 861.559 462.802Z"></path>
<path fill="#FFFFFE" d="M557.895 605.174C568.476 597.519 582.357 599.367 594.236 602.293C580.091 604.25 565.661 610.388 557.961 623.059C549.25 636.324 551.89 652.8 551.736 667.781C550.086 665.867 548.436 663.976 546.786 662.106C542.738 661.534 538.669 661.226 534.731 660.258C532.025 654.868 533.125 648.621 534.049 642.967C537.283 628.162 545.73 614.304 557.895 605.174Z"></path>
<path fill="#FEFFFF" d="M590.562 612.852C609.811 608.584 631.413 624.401 631.171 644.529C631.061 664.548 631.677 684.588 630.863 704.606C628.003 695.081 624.638 685.556 624.374 675.525C623.758 660.412 623.032 644.419 614.914 631.176C609.569 621.959 598.702 618.857 590.562 612.852Z"></path>
<path fill="#FEFEFF" d="M794.398 436.031C793.87 426.945 795.608 418.08 801.305 410.843C803.175 411.107 806.915 411.635 808.785 411.921C809.225 413.065 810.083 415.396 810.523 416.562C809.973 418.96 809.467 421.402 808.939 423.844C802.867 426.263 798.094 430.729 794.398 436.031Z"></path>
<path fill="#FEFEFF" d="M268.069 430.091C282.983 424.833 295.566 444.61 289.363 457.523C284.985 469.05 267.805 472.306 260.039 462.406C250.118 452.749 254.21 433.523 268.069 430.091Z"></path>
<path fill="#FEFEFF" d="M162.433 542.238C169.253 538.564 176.248 548.001 172.244 553.919C169.517 558.956 162.191 558.341 158.341 555.041C155.834 550.553 157.638 544.284 162.433 542.238Z"></path>
<path fill="#FEFEFF" d="M435.453 584.584C444.406 581.043 452.766 576.225 461.389 571.979C464.623 578.513 468.384 587.092 462.533 593.384C455.603 600.423 445.022 596.177 436.663 594.946C433.231 599.631 430.811 606.121 424.762 607.991C413.323 610.806 400.344 607.001 392.512 598.135C389.807 595.803 390.291 590.04 394.272 589.468C408.043 588.874 422.298 589.534 435.453 584.584Z"></path>
<path fill="#E3EFF9" d="M735.113 370.299C737.753 369.199 742.724 372.631 739.513 375.094C737.951 375.446 734.849 376.15 733.287 376.48C733.749 374.94 734.651 371.839 735.113 370.299Z"></path>
<path fill="#FFFEFE" d="M522.786 441.882C521.928 437.504 527.274 431.653 531.563 434.93C536.337 437.284 533.807 442.74 533.301 446.677C529.737 445.666 523.028 447.249 522.786 441.882Z"></path>
<path fill="#FFFEFE" d="M548.656 699.855L551.516 696.665C551.956 709.226 551.714 721.809 551.824 734.392C543.948 734.392 535.963 734.832 528.286 732.896C529.43 732.742 531.717 732.434 532.861 732.302C533.147 723.415 531.365 712.306 540.165 706.828C543.068 704.584 546.148 702.538 548.656 699.855Z"></path>
<path fill="#FFFEFF" d="M521.642 504.466C557.059 470.743 591.97 436.448 628.113 403.517C656.117 427.055 682.735 452.221 709.925 476.705C725.477 491.069 741.382 505.082 756.539 519.909C754.405 524.617 753.657 529.786 754.185 534.934L754.273 537.486C713.95 501.717 674.618 464.76 633.943 429.365C630.621 426.197 625.474 426.923 622.724 430.464C589.55 463.616 554.991 495.381 521.928 528.708C522.61 520.635 523.402 512.452 521.642 504.466Z"></path>
<path fill="#F17172" d="M485.389 550.399C492.319 541.336 496.3 530.513 499.732 519.756C504.264 521.12 508.817 522.55 513.327 524.002C513.261 551.015 502.064 579.085 479.318 594.814C476.634 585.575 472.366 576.951 468.89 568.02C474.302 562.058 480.725 557.021 485.389 550.399Z"></path>
<path fill="#F17172" d="M248.512 550.025C250.998 541.094 260.149 540.126 268.003 539.29C261.689 543.162 255.178 546.769 248.512 550.025Z"></path>
<path fill="#F17172" d="M440.491 604.097C450.94 606.363 462.203 605.813 470.475 598.312C475.028 615.756 478.746 633.421 481.32 651.261C468.693 657.817 455.428 663.976 440.931 664.482C432.836 663.954 428.942 673.128 421.045 673.259C401.092 676.273 380.766 676.493 360.769 673.809C364.575 656.695 367.611 639.404 372.011 622.444C374.254 614.7 376.146 606.473 381.294 600.049C392.931 611.356 408.968 619.54 425.598 616.042C432.484 615.162 436.685 609.245 440.491 604.097Z"></path>
<path fill="#F17172" d="M458.64 680.606C466.911 676.911 475.468 673.875 483.828 670.421C488.183 706.674 491.901 743.059 499.072 778.917C462.555 792.511 422.365 793.853 384.044 788.64C364.685 785.956 344.645 781.006 329.554 767.829C338.375 758.722 341.807 746.293 345.459 734.546C350.254 718.729 353.84 702.605 358.02 686.656C378.83 689.956 400.102 691.364 421.045 688.35C428.194 687.074 435.453 687.69 442.647 687.756C448.784 687.668 453.338 683.004 458.64 680.606Z"></path>
<path fill="#EFCF5B" d="M436.971 671.851C439.941 672.489 441.041 676.977 438.907 679.088C435.013 680.98 433.055 672.489 436.971 671.851Z"></path>
<path fill="#EFCF5B" d="M444.252 671.72C447.222 669.564 450.192 674.799 447.662 676.911C444.648 679.045 441.811 673.787 444.252 671.72Z"></path>
<path fill="#394356" d="M217.231 119.674C226.668 116.396 237.403 126.779 233.619 136.194C231.222 145.631 217.605 149.019 211.357 141.386C204.384 134.874 208.167 121.983 217.231 119.674ZM215.581 132.982C215.317 138.482 224.006 140.396 225.854 135.138C228.142 131.113 223.126 128.077 221.036 125.415C219.079 127.637 215.031 129.353 215.581 132.982Z"></path>
<path fill="#374153" d="M679.127 119.608C687.883 116.594 697.54 125.305 695.934 134.303C695.274 143.872 682.999 149.107 675.278 143.784C666.104 138.174 668.678 122.182 679.127 119.608ZM679.545 138.394C682.559 137.602 686.431 137.8 688.059 134.545C689.422 130.409 684.979 127.967 682.845 125.283C678.159 128.495 676.927 133.379 679.545 138.394Z"></path>
<path fill="#FA7B78" d="M215.581 132.982C215.031 129.353 219.079 127.637 221.036 125.415C223.126 128.077 228.142 131.113 225.854 135.138C224.006 140.396 215.317 138.482 215.581 132.982Z"></path>
<path fill="#FA7878" d="M679.545 138.394C676.928 133.378 678.16 128.494 682.845 125.283C684.979 127.966 689.423 130.408 688.059 134.544C686.431 137.8 682.559 137.602 679.545 138.394Z"></path>
<path fill="#DAF0FF" d="M289.539 268.976C345.568 221.328 415.919 190.025 489.415 183.403C541.221 178.189 594.038 185.273 643.028 202.739C770.992 250.08 868.708 369.354 891.542 503.653C893.61 515.136 893.676 526.971 897.196 538.168C890.53 543.888 890.266 554.271 897.394 559.727C894.732 587.95 895.128 617.45 884.173 644.024C878.079 631.969 872.36 619.694 866.508 607.507C872.712 605.549 881.093 603.591 882.215 595.914C883.953 582.429 875.77 570.55 868.972 559.683C859.733 545.868 850.933 531.613 845.588 515.774C849.856 512.012 855.993 508.141 855.135 501.541C854.497 492.852 845.434 489.706 838.856 486.341C836.811 481.567 834.699 476.837 832.587 472.13C834.985 467.664 839.538 463.154 837.867 457.677C836.789 453.189 833.093 448.57 828.077 448.922C822.93 449.626 818.288 452.155 813.405 453.783C818.574 448.702 827.483 444.016 826.031 435.525C824.602 427.473 816.154 424.262 808.939 423.844C809.467 421.402 809.973 418.96 810.523 416.562C810.919 410.887 814.922 404.507 811.425 399.316C805.661 393.574 796.884 394.762 790.108 397.842C784.543 393.42 776.799 385.699 769.408 390.538C762.721 398.194 768.352 408.709 771.476 416.738C769.694 418.718 767.934 420.72 766.174 422.722C764.282 415.99 762.215 408.049 755.593 404.463C738.039 394.872 715.864 396.148 698.596 405.783C697.958 401.669 697.408 397.578 696.594 393.53C695.34 389.394 690.632 390.186 687.289 389.834C680.271 389.812 673.078 389.218 666.192 390.846C663.289 391.902 664.015 395.51 663.619 397.93C663.201 406.157 663.553 414.406 663.443 422.678C653.28 414.318 644.524 404.265 633.679 396.808C627.476 392.804 621.052 398.04 616.674 402.219C583.787 433.501 550.724 464.628 518.232 496.306C513.283 489.552 506.683 483.987 498.082 482.887C493.704 469.116 486.951 456.137 477.228 445.358C477.492 437.262 477.536 428.441 472.322 421.732C467.504 414.054 458.903 410.359 450.588 407.895C437.433 389.262 418.69 374.392 396.67 367.836C372.604 360.511 344.798 363.217 324.032 377.977C308.259 389.13 299.79 407.301 292.641 424.636C290.001 418.234 286.767 412.119 283.115 406.267C270.796 386.161 259.555 365.438 247.852 345.002C242.705 335.565 236.897 326.479 232.783 316.536C237.447 316.492 242.155 316.91 246.774 316.184C252.384 314.292 253.154 307.649 252.12 302.611C265.143 292.008 276.274 279.315 289.539 268.976ZM474.962 250.234C456.021 254.963 447.64 280.569 459.277 295.99C466.955 307.495 483.079 310.685 495.398 305.383C507.871 299.554 514.867 284.089 510.885 270.868C506.969 255.799 490.075 245.702 474.962 250.234ZM344.886 280.833C336.219 284.265 334.921 297.508 342.951 302.347C350.342 308.397 362.815 301.973 362.463 292.536C362.815 283.935 352.828 276.631 344.886 280.833ZM650.662 280.217C642.5 284.837 642.984 298.19 651.608 302.017C659.703 306.549 670.812 299.554 670.064 290.292C669.646 281.185 658.361 274.85 650.662 280.217ZM740.854 304.481C735.729 306.395 736.719 315.942 742.262 316.536C747.366 318.318 752.227 310.289 748.312 306.329C746.86 303.315 743.516 303.755 740.854 304.481ZM569.18 317.526C562.339 318.78 558.599 327.293 563.505 332.705C571.402 339.062 583.611 330.395 581.983 320.98C580.223 315.458 573.558 315.194 569.18 317.526ZM694.724 335.235C688.147 336.357 688.521 348.456 695.89 347.378C705.481 348.874 703.237 332.903 694.724 335.235ZM435.079 348.016C432.923 349.424 430.503 351.271 430.569 354.131C430.239 359.103 437.301 362.623 440.601 358.289C445.572 354.197 440.513 347.422 435.079 348.016ZM731.571 363.172C724.466 366.67 722.794 377.647 729.151 382.685C735.641 388.36 747.498 384.775 749.126 376.085C751.436 366.758 739.755 358.421 731.571 363.172ZM509.609 381.343C498.478 386.007 495.948 402.989 506.001 410.139C515.153 417.574 530.397 411.789 532.399 400.196C535.589 387.701 521.356 375.536 509.609 381.343ZM522.786 441.882C523.028 447.25 529.737 445.666 533.301 446.678C533.807 442.74 536.337 437.284 531.563 434.931C527.274 431.653 521.928 437.505 522.786 441.882ZM861.559 462.803C853.045 463.001 855.201 477.189 863.164 475.099C870.732 474.22 869.104 461.549 861.559 462.803Z"></path>
<path fill="#FCDB4F" d="M474.962 250.233C490.075 245.701 506.969 255.798 510.885 270.867C514.867 284.088 507.871 299.553 495.398 305.382C483.079 310.684 466.955 307.494 459.277 295.989C447.64 280.568 456.021 254.963 474.962 250.233ZM474.544 264.928C461.301 269.723 460.399 291.37 472.916 297.639C483.233 303.557 497.136 295.747 498.94 284.374C499.93 278.413 502.68 271.043 498.5 265.83C491.593 260.814 482.199 263.3 474.544 264.928Z"></path>
<path fill="#FFF195" d="M474.544 264.928C482.199 263.3 491.593 260.814 498.5 265.83C502.68 271.044 499.93 278.413 498.94 284.375C497.136 295.748 483.233 303.557 472.916 297.64C460.399 291.37 461.301 269.724 474.544 264.928Z"></path>
<path fill="#354052" d="M220.641 278.743C225.502 275.069 228.274 265.984 235.929 268.997C239.515 271.747 241.803 275.817 245.257 278.721C250.294 280.459 257.906 279.403 259.643 285.98C260.391 291.678 254.584 294.779 251.592 298.761L252.12 302.611C253.154 307.648 252.384 314.292 246.774 316.184C242.155 316.91 237.447 316.492 232.784 316.536C236.897 326.479 242.705 335.564 247.852 345.001C259.555 365.438 270.796 386.16 283.115 406.266C286.767 412.118 290.001 418.233 292.641 424.635C299.79 407.3 308.259 389.13 324.032 377.977C344.799 363.216 372.604 360.51 396.67 367.836C418.691 374.391 437.433 389.262 450.588 407.894C458.903 410.358 467.505 414.054 472.322 421.731C477.536 428.441 477.492 437.262 477.228 445.357C486.951 456.136 493.704 469.115 498.082 482.886C506.683 483.986 513.283 489.552 518.233 496.305C550.724 464.628 583.787 433.5 616.675 402.219C621.052 398.039 627.476 392.804 633.679 396.807C644.524 404.265 653.28 414.318 663.443 422.677C663.553 414.406 663.201 406.156 663.619 397.929C664.015 395.509 663.289 391.902 666.193 390.846C673.078 389.218 680.271 389.812 687.289 389.834C690.633 390.186 695.34 389.394 696.594 393.529C697.1 413.196 696.616 432.884 696.528 452.551C717.426 471.777 738.391 490.894 759.355 510.054C761.071 500.969 763.535 491.796 769.1 484.25C775.128 475.935 781.507 467.685 785.225 458.006C787.843 451.847 791.34 446.061 793.452 439.704C792.814 433.236 790.505 427.077 789.229 420.741C787.425 427.143 785.137 433.456 781.771 439.242C771.784 442.014 766.372 431.014 766.174 422.721C767.934 420.719 769.694 418.717 771.476 416.738C768.352 408.708 762.721 398.193 769.408 390.538C776.8 385.698 784.543 393.419 790.109 397.841C796.884 394.761 805.661 393.573 811.425 399.315C814.923 404.507 810.919 410.886 810.523 416.562C810.083 415.396 809.225 413.064 808.785 411.92C806.915 411.634 803.175 411.106 801.306 410.842C795.608 418.08 793.87 426.945 794.398 436.03C798.094 430.728 802.868 426.263 808.939 423.843C816.154 424.261 824.602 427.473 826.032 435.524C827.484 444.015 818.574 448.701 813.405 453.783C818.288 452.155 822.93 449.625 828.078 448.921C833.093 448.569 836.789 453.189 837.867 457.676C839.539 463.154 834.985 467.664 832.587 472.129C834.699 476.837 836.811 481.566 838.857 486.34C845.434 489.706 854.497 492.851 855.135 501.541C855.993 508.14 849.856 512.012 845.588 515.774C850.934 531.612 859.733 545.867 868.972 559.682C875.77 570.549 883.953 582.428 882.215 595.913C881.093 603.59 872.712 605.548 866.508 607.506C872.36 619.693 878.079 631.968 884.173 644.023C890.992 659.07 899.088 673.919 902.08 690.352C904.147 701.241 901.86 713.626 892.642 720.709C910.021 721.875 928.543 725.373 942.138 737.098C949.64 743.499 955.073 754.63 950.058 764.156C942.6 778.894 926.3 786.022 911.649 791.565C869.148 805.402 824.008 807.954 779.681 810.044C736.829 811.936 693.998 808.944 651.168 808.68C666.743 806.524 682.493 807.052 698.156 806.216C742.24 804.104 786.369 802.278 830.343 798.055C854.255 795.459 878.277 792.423 901.464 785.802C913.915 781.864 926.696 777.245 936.507 768.291C940.62 764.376 944.756 758.436 942.314 752.562C938.883 743.873 930.259 738.77 922.054 735.338C909.713 730.058 896.096 730.014 883.007 728.21C874.582 727.199 867.938 721.545 861.251 716.903C855.949 720.027 850.274 722.997 843.916 722.579C840.418 720.819 837.009 718.927 833.599 717.057C833.379 722.843 833.181 728.65 833.093 734.458L835.183 734.26C848.206 734.172 861.273 733.732 874.296 734.216C878.849 734.062 881.423 737.45 879.113 741.695C876.166 742.619 873.042 742.773 869.984 742.927C747.366 743.279 624.726 743.059 502.108 743.169C503.296 753.024 505.452 762.748 507.651 772.427C508.597 776.827 509.587 782.656 505.386 785.802C500.656 789.102 494.936 790.421 489.591 792.379C488.953 808.218 486.489 824.035 487.479 839.939C495.486 842.161 507.057 840.247 511.039 849.399C514.823 857.032 508.333 864.907 501.096 867.063C488.997 869.285 476.986 872.101 464.799 873.751C461.477 874.763 459.519 871.507 457.693 869.439C453.008 846.209 443.285 824.321 439.369 800.893C428.106 801.201 416.821 800.717 405.536 800.981C394.031 810.924 382.327 821.065 368.315 827.444C357.887 833.142 345.876 834.858 335.361 840.291C337.869 845.989 342.775 851.929 340.575 858.506C338.485 865.721 328.74 868.317 323.086 863.631C315.079 857.56 309.821 848.783 303.97 840.797C301.088 836.354 297.392 832.306 295.676 827.224C295.632 824.211 298.184 822.231 300.098 820.339C313.187 808.878 327.508 798.781 339.673 786.242C332.765 781.842 326.298 776.695 321.612 769.919C305.84 773.571 288.703 774.627 273.59 767.851C256.63 760.35 245.411 744.577 236.633 728.892C208.651 728.364 180.67 728.892 152.688 728.65C132.494 728.606 111.221 729.2 92.9188 738.682C86.3634 742.421 78.532 749.461 81.3478 757.864C86.0774 766.597 96.1526 770.249 104.908 773.659C137.201 784.68 171.716 785.186 205.418 787.738C230.54 789.014 255.684 790.399 280.85 790.773C247.786 794.271 214.415 795.151 181.176 794.337C152.512 792.863 123.21 790.487 96.2626 779.818C86.6273 775.859 76.0902 769.963 72.7245 759.404C70.0847 750.671 75.0343 741.739 81.5018 736.152C91.5769 727.44 104.952 724.163 117.755 721.963C140.941 718.685 164.435 720.401 187.775 719.829C191.911 719.785 196.025 719.741 200.16 719.741C199.522 713.12 198.928 706.476 198.356 699.855C190.041 700.955 182.122 698.425 174.95 694.421C174.532 694.641 173.696 695.081 173.278 695.301C165.997 701.395 155.24 702.759 148.222 695.521C142.041 698.139 135.375 701.439 128.468 699.745C120.241 698.029 113.663 690.417 113.443 681.992C112.607 667.979 117.975 654.604 123.738 642.153C131.658 625.501 140.127 609.068 146.595 591.778C150.576 582.12 155.108 572.705 159.617 563.29C152.974 560.32 144.879 557.856 142.877 549.849C142.679 544.943 142.657 540.038 143.163 535.176C148.178 510.384 164.347 490.278 177.744 469.599C180.45 459.414 179.856 448.547 182.584 438.296C174.114 438.164 166.921 432.928 165.359 424.459C166.745 419.795 169.297 415.55 172.706 412.14C178.514 411.106 184.299 412.272 189.755 414.274C197.322 389.13 207.992 365.152 218.265 341.064C221.476 332.726 226.162 325.137 230.65 317.46C225.59 316.58 218.859 318.274 215.273 313.676C211.665 309.518 214.371 303.909 214.635 299.179C211.335 295.175 204.582 291.26 206.892 285.188C208.937 279.359 215.955 280.503 220.641 278.743ZM232.696 277.511C228.802 283.208 223.808 288.246 216.461 288.62C221.63 294.691 222.84 302.259 221.96 310.046C225.546 308.99 229 307.626 232.41 306.108C236.391 307.538 240.395 308.946 244.487 310.046C244.333 305.559 244.025 301.093 243.673 296.649C246.048 293.812 248.424 290.996 250.8 288.202C243.101 287.96 236.919 283.714 232.696 277.511ZM231.134 333.738C225.832 346.541 220.333 359.234 215.229 372.125C221.344 374.457 226.712 378.241 230.452 383.696C237.755 379.341 244.025 373.533 249.766 367.308C243.761 356 238.217 344.407 231.134 333.738ZM253.55 374.017C245.499 384.994 233.114 391.22 223.786 400.921C218.331 406.816 210.037 403.693 203.9 400.811C197.982 418.145 192.263 435.634 188.941 453.695C194.749 448.679 199.742 442.497 206.562 438.78C209.157 437.196 211.995 439.132 211.951 442.124C205.396 449.493 197.52 455.762 192.505 464.452C195.211 465.794 197.938 467.157 200.688 468.499C205.484 465.354 210.323 460.822 216.527 461.57C223.148 461.944 227.372 467.597 231.64 471.931C237.381 469.203 243.013 466.256 248.512 463.066C244.707 453.123 243.871 441.178 250.8 432.378C257.818 422.083 271.61 420.345 282.852 423.425C272.864 407.08 263.911 390.12 253.55 374.017ZM320.16 393.903C309.337 406.882 303.904 423.249 294.753 437.35C295.698 440.342 296.644 443.377 297.59 446.413C309.425 435.15 316.883 419.377 331.006 410.666C329.29 421.687 320.446 429.497 316.245 439.506C332.501 435.876 348.098 429.871 364.091 425.273C385.583 418.344 407.757 413.79 430.13 410.71C433.143 409.918 436.927 410.358 439.193 407.806C425.554 390.516 405.492 377.999 383.757 374.171C361.187 370.255 335.515 375.975 320.16 393.903ZM212.919 381.277C207.838 382.376 205.264 388.932 208.388 393.178C211.005 397.775 218.177 397.753 221.058 393.397C225.37 388.074 219.651 379.011 212.919 381.277ZM772.972 393.486C770.816 397.907 772.114 402.857 772.466 407.542C779.571 410.754 785.401 402.087 783.223 395.729C782.739 396.169 781.771 397.049 781.287 397.489C779.087 394.563 776.338 393.222 772.972 393.486ZM671.34 399.909C671.274 409.566 671.23 419.201 671.098 428.859C676.378 433.786 681.745 438.626 687.421 443.113C687.817 428.683 687.905 414.252 687.597 399.843C682.163 399.843 676.752 399.865 671.34 399.909ZM788.217 409.126C789.933 411.106 791.868 412.888 793.804 414.736C794.75 411.942 795.674 409.17 796.62 406.398C800.734 406.112 804.869 405.849 809.005 405.453C803.483 397.357 791.318 400.811 788.217 409.126ZM521.642 504.467C523.402 512.452 522.61 520.635 521.928 528.709C554.992 495.381 589.551 463.616 622.724 430.465C625.474 426.923 630.621 426.197 633.943 429.365C674.618 464.76 713.951 501.717 754.273 537.486L754.185 534.934C758.673 534.714 765.867 536.188 766.878 529.94C769.298 523.781 760.609 521.691 756.539 519.909C741.382 505.082 725.478 491.07 709.925 476.705C682.735 452.221 656.117 427.055 628.114 403.517C591.971 436.448 557.059 470.743 521.642 504.467ZM770.442 427.319C772.51 429.915 774.754 432.334 777.24 434.556C782.805 428.551 784.433 420.543 784.477 412.58C779.835 417.53 775.106 422.391 770.442 427.319ZM175.83 419.399C169.715 423.491 174.268 433.852 181.572 432.18C190.239 429.76 183.442 414.208 175.83 419.399ZM375.882 430.244C356.392 435.634 337.473 442.872 317.895 447.953C309.557 449.537 303.288 456.114 299.152 463.154C295.259 470.567 290.705 479.169 295.127 487.418C304.96 485.746 314.045 481.566 323.416 478.421C369.723 462.164 418.119 452.947 466.515 445.577C473.488 432.136 459.959 415.242 445.506 417.156C422.1 420.213 398.76 424.305 375.882 430.244ZM268.069 430.091C254.21 433.522 250.118 452.749 260.039 462.406C267.805 472.305 284.985 469.049 289.363 457.522C295.566 444.609 282.984 424.833 268.069 430.091ZM805.133 433.39C803.043 439.11 808.895 442.915 812.547 446.127C815.451 443.245 821.016 440.452 819.564 435.48C817.76 429.409 808.565 428.045 805.133 433.39ZM525.25 537.508C517.969 543.975 518.43 554.468 515.043 562.938C510.511 577.435 499.908 588.83 488.865 598.795C486.489 600.709 484.091 602.623 481.715 604.559C484.003 613.248 485.631 622.113 487.831 630.846C488.205 637.6 489.877 644.199 490.823 650.887C500.59 651.547 501.36 663.052 500.964 670.575C504.902 669.013 508.927 667.605 512.667 665.625C517.903 662.986 518.584 655.594 524.04 653.394C527.23 654.34 528.682 657.75 530.904 659.994C535.061 666.879 545.422 664.262 549.866 670.751C549.206 675.525 545.378 679.176 544.63 683.95C544.938 689.45 546.94 694.641 548.656 699.855C546.148 702.538 543.069 704.584 540.165 706.828C536.029 706.96 531.893 707.18 527.78 707.334C527.714 715.891 527.472 724.449 527.318 733.028L528.286 732.896C535.963 734.832 543.948 734.392 551.824 734.392C551.714 721.809 551.956 709.226 551.516 696.665C552.352 687.052 551.494 677.395 551.736 667.781C551.89 652.801 549.25 636.324 557.961 623.059C565.661 610.388 580.091 604.25 594.236 602.293C601.716 603.657 609.591 604.052 616.433 607.77C630.357 614.436 640.301 628.954 640.565 644.529C640.961 674.447 640.631 704.364 640.807 734.282C679.655 734.37 718.482 734.37 757.331 734.348C757.419 730.102 757.485 725.835 757.617 721.633C758.695 722.051 760.829 722.909 761.885 723.327C760.103 721.259 758.343 719.191 756.627 717.123C747.52 722.139 737.467 726.803 726.754 725.461C718.548 724.999 711.377 718.531 710.013 710.436C706.955 693.893 711.685 677.109 717.844 661.842C725.126 644.441 733.749 627.613 742.262 610.806C737.071 607.308 731.087 603.107 730.911 596.155C729.613 577.325 742.284 561.926 750.82 546.307C710.717 509.24 669.756 473.097 629.192 436.536C594.544 470.193 559.347 503.323 525.25 537.508ZM787.711 471.513C790.681 474.703 794.2 477.387 797.544 480.247C804.121 477.849 811.535 473.559 813.251 466.366C810.061 459.018 805.353 452.485 801.394 445.577C796.95 454.289 791.912 462.692 787.711 471.513ZM446.98 458.908C457.869 464.144 469.858 466.388 481.825 467.245C478.878 462.032 475.556 457.082 471.948 452.331C463.897 455.454 455.472 457.368 446.98 458.908ZM824.382 456.114C818.112 458.82 820.422 470.743 827.99 467.884C836.701 466.718 832.873 451.253 824.382 456.114ZM417.965 462.934C411.057 483.722 397.682 502.795 378.874 514.41C373.264 517.929 366.753 519.667 361.011 522.945C355.006 530.138 350.694 538.784 343.369 544.899C338.397 550.091 330.434 547.099 324.428 549.959C319.369 553.105 321.194 561.178 326.078 563.598C332.523 567.513 341.015 561.42 346.822 566.919C357.294 574.311 369.964 577.655 382.503 579.282C408.637 581.988 436.355 577.985 458.507 563.07C486.401 545.603 499.424 507.502 485.807 477.079C468.033 475.627 450.742 469.621 435.805 459.92C429.844 460.822 423.904 461.834 417.965 462.934ZM346.888 480.334C330.478 485.13 314.727 491.906 298.14 496.085C295.654 507.282 289.561 518.303 292.201 530.072C294.137 542.765 302.056 553.193 309.359 563.334C312.725 558.582 313.165 552.665 315.123 547.363C317.631 542.897 322.976 541.512 327.2 539.202C330.764 529.654 333.799 518.787 343.017 513.046C341.301 522.263 338.111 531.194 337.473 540.61C351.904 522.791 362.199 502.003 372.692 481.698C373.726 478.707 376.74 477.651 379.336 476.463C377.862 488.716 372.318 499.825 367.677 511.088C386.529 501.937 399.09 484.074 408.131 465.772C387.343 468.785 367.017 474.417 346.888 480.334ZM188.391 470.523C172.904 492.543 155.108 514.96 151.412 542.479C155.922 539.598 160.123 534.736 165.953 535.088C170.705 534.868 173.828 538.982 177.326 541.512C180.67 541.072 184.189 539.95 187.379 541.753C187.577 545.031 184.739 547.077 182.892 549.409C164.677 568.481 154.228 593.427 146.089 618.153C144.857 636.566 156.692 656.584 174.972 662.062C189.425 666.659 204.846 664.724 219.673 663.294C220.487 666.549 221.278 669.783 222.048 673.105C221.916 660.962 223.72 648.907 226.954 637.226C222.136 638.436 216.967 639.866 212.193 637.6C206.804 635.686 204.098 630.252 201.018 625.875C194.507 630.868 187.973 638.04 179.108 637.732C172.816 637.248 172.86 630.01 171.694 625.413C165.667 623.279 159.287 620.045 157.154 613.512C152.622 603.92 159.111 590.436 170.287 590.282C178.074 588.962 183.046 596.683 190.063 598.025C200.27 595.187 209.795 589.094 216.659 580.998C210.411 579.766 202.536 580.272 198.268 574.575C191.691 565.578 193.385 553.215 197.256 543.469C202.316 530.578 213.865 521.977 225.172 514.828C229.55 511.572 235.093 513.882 239.955 514.322C245.587 508.756 251.614 500.991 260.545 502.377C268.355 504.027 275.064 509.13 280.96 514.278C282.346 520.679 282.412 527.301 284.127 533.658C284.325 523.627 282.632 513.464 285.161 503.609C287.537 493.951 283.291 484.382 283.225 474.725C273.018 478.135 262.217 475.935 253.616 469.709C246.972 474.021 239.911 477.607 232.498 480.378C229.066 488.562 222.026 497.097 212.039 495.007C202.228 494.039 198.18 484.25 196.882 475.759C194.067 473.999 191.229 472.261 188.391 470.523ZM210.191 470.985C204.736 474.549 204.89 483.876 210.851 486.868C216.813 490.432 224.732 483.898 222.774 477.343C222.466 471.513 214.921 467.465 210.191 470.985ZM790.043 496.415C784.719 500.419 778.625 496.789 773.17 495.227C771.036 501.893 769.056 508.624 767.252 515.4C770.046 517.269 772.84 519.205 775.744 520.987C783.465 526.311 793.386 524.903 801.878 528.269C805.595 527.213 809.269 526.091 812.921 524.903C816.176 517.006 824.69 513.948 829.683 507.656C830.915 501.893 831.267 496.019 832.169 490.234C829.133 484.25 825.702 478.487 821.83 473.009C813.185 483.194 801.35 489.684 790.043 496.415ZM780.099 479.983L780.561 480.269C778.779 483.194 774.644 486.846 777.548 490.52C779.461 495.227 784.961 493.885 788.899 493.599C789.955 490.388 793.628 486.956 791.076 483.568C788.789 479.631 783.905 480.379 780.099 479.983ZM839.957 496.217C834.941 497.933 835.205 505.192 838.989 508.206C842.926 512.672 849.46 506.138 849.284 501.651C850.472 496.415 843.74 494.523 839.957 496.217ZM500.964 502.487C500.832 505.698 500.7 508.932 500.568 512.188C505.298 513.552 509.983 515.026 514.713 516.478C513.723 512.518 512.689 508.624 511.545 504.752C508.003 503.982 504.484 503.235 500.964 502.487ZM254.562 511.11C245.719 517.027 246.598 528.775 247.016 538.102C252.78 529.039 259.511 520.349 268.949 514.872C264.417 513.178 259.401 507.018 254.562 511.11ZM834.083 511.11C834.831 516.785 837.163 522.109 840.814 526.531C839.825 520.987 839.561 514.256 834.083 511.11ZM225.436 525.651C228.362 529.302 232.014 532.294 235.445 535.484C235.973 531.172 236.523 526.905 237.095 522.659C235.379 520.723 233.663 518.831 231.948 516.94C229.462 519.535 225.634 521.603 225.436 525.651ZM269.367 519.337C264.087 524.397 259.291 529.985 255.464 536.232C259.093 535.55 262.921 535.374 266.309 533.812C270.686 530.336 269.939 524.221 269.367 519.337ZM485.389 550.399C480.726 557.02 474.302 562.058 468.89 568.019C472.366 576.951 476.634 585.574 479.318 594.813C502.064 579.084 513.261 551.015 513.327 524.001C508.817 522.549 504.264 521.119 499.732 519.755C496.3 530.512 492.319 541.335 485.389 550.399ZM822.204 521.955C817.958 524.441 818.552 532.25 823.568 533.504C827.945 535.044 830.937 531.084 833.577 528.401C832.983 526.663 831.773 523.187 831.179 521.449C828.232 521.625 824.492 519.315 822.204 521.955ZM751.964 561.772C745.65 572.045 738.633 583.616 740.173 596.111C740.833 601.083 746.794 599.631 750.336 600.445C751.81 597.849 753.284 595.297 754.801 592.745C755.791 592.701 757.815 592.613 758.827 592.569C759.729 595.649 760.609 598.729 761.489 601.853C764.151 601.083 766.812 600.335 769.496 599.609C772.004 595.187 774.072 589.292 779.725 588.214C784.653 586.256 788.547 590.26 792.176 592.899C796.202 589.336 799.986 583.99 805.969 584.276C812.635 584.408 817.408 589.644 822.886 592.679C830.937 597.717 840.727 597.937 849.944 598.311C851.99 596.397 854.057 594.527 856.147 592.679C861.053 595.759 868.202 600.951 873.174 594.967C874.78 584.826 868.114 575.807 863.275 567.513C854.959 555.678 848.58 542.677 840.375 530.798C836.679 534.252 833.423 539.092 828.012 539.906C823.018 540.962 818.948 537.068 814.791 535C811.095 535.572 807.399 536.166 803.725 536.804C801.592 541.687 800.272 547.803 795.014 550.377C787.579 554.843 776.14 547.935 778.054 539.004C777.086 535.704 780.319 529.544 775.106 529.017C764.987 538.058 759.443 550.729 751.964 561.772ZM784.741 533.438C777.482 537.816 785.819 551.763 792.924 545.273C800.778 540.038 792.396 528.621 784.741 533.438ZM221.08 534.12C220.817 538.278 220.619 542.435 220.465 546.637C224.49 545.845 228.516 545.075 232.542 544.371C228.758 540.896 224.952 537.464 221.08 534.12ZM248.512 550.025C255.178 546.769 261.689 543.161 268.003 539.29C260.149 540.126 250.998 541.094 248.512 550.025ZM162.433 542.237C157.638 544.283 155.834 550.553 158.342 555.04C162.191 558.34 169.517 558.956 172.244 553.919C176.248 548.001 169.253 538.564 162.433 542.237ZM203.878 567.117C205.704 572.287 212.259 571.099 216.571 571.253C223.874 571.451 229.11 565.776 233.949 561.134C228.208 559.99 221.96 559.286 217.363 555.304C212.567 551.609 210.653 545.625 208.19 540.39C203.504 548.265 199.786 558.186 203.878 567.117ZM275.79 545.647C281.554 554.446 286.327 563.884 289.187 574.069C293.323 571.517 297.392 568.899 301.374 566.15C294.511 558.318 288.373 549.827 284.193 540.258C281.378 542.039 278.584 543.821 275.79 545.647ZM223.984 548.375C222.576 551.785 230.32 554.381 230.958 550.663C229.924 548.199 226.228 546.791 223.984 548.375ZM258.565 557.46C265.759 563.95 272.974 570.461 280.212 576.951C277.132 567.777 273.502 558.802 268.883 550.311C265.429 552.665 261.997 555.04 258.565 557.46ZM242.243 571.407C245.521 578.095 250.25 583.924 254.43 590.062C260.281 588.148 266.265 586.278 271.346 582.714C266.485 574.487 259.115 568.217 252.384 561.574C249.062 564.786 244.091 566.986 242.243 571.407ZM316.333 568.019C309.205 572.925 301.858 577.479 294.489 581.988C298.536 588.324 301.572 595.209 303.794 602.381C316.135 598.201 328.476 593.999 340.729 589.534C342.115 584.672 343.611 579.898 345.194 575.125C335.647 572.177 324.956 574.003 316.333 568.019ZM223.874 581.944C225.216 586.344 226.558 590.766 227.878 595.209C234.543 594.439 241.187 593.493 247.83 592.547C243.695 586.212 239.449 579.964 235.269 573.673C231.398 576.335 227.614 579.106 223.874 581.944ZM435.453 584.584C422.298 589.534 408.043 588.874 394.273 589.468C390.291 590.04 389.807 595.803 392.513 598.135C400.344 607 413.323 610.806 424.762 607.99C430.812 606.12 433.231 599.631 436.663 594.945C445.022 596.177 455.604 600.423 462.533 593.383C468.385 587.092 464.623 578.513 461.389 571.979C452.766 576.225 444.406 581.042 435.453 584.584ZM355.688 583.572C348.472 586.784 347.57 599.015 355.204 602.381C361.561 606.516 370.272 601.347 370.25 593.977C370.492 586.52 362.155 582.626 355.688 583.572ZM232.366 604.03C235.115 611.884 237.667 619.825 240.263 627.745C258.301 624.005 275.416 616.46 290.837 606.45C294.995 608.848 302.43 609.86 301.748 602.799C302.166 593.163 286.987 595.649 290.595 604.624C289.605 598.619 286.019 593.537 283.115 588.346C267.233 596.331 250.272 602.755 232.366 604.03ZM799.766 594.241C796.73 597.167 798.094 601.567 797.676 605.328C802.296 607.726 807.399 608.518 811.931 605.46C812.459 602.293 813.779 599.081 813.075 595.891C810.941 590.59 803.132 589.754 799.766 594.241ZM192.175 606.868C188.325 613.93 185.619 621.563 182.012 628.757C189.997 624.093 197.85 618.901 203.658 611.576C208.08 604.691 217.055 609.618 223.544 609.266C221.652 603.414 219.563 597.629 217.275 591.953C209.531 597.959 200.468 601.787 192.175 606.868ZM780.297 594.461C773.39 596.925 777.042 607.638 783.839 606.516C792.132 606.142 787.535 592.635 780.297 594.461ZM166.261 598.597C160.915 602.491 160.123 612.082 166.239 615.668C172.75 620.221 182.32 612.566 180.406 605.174C179.548 598.993 171.387 594.615 166.261 598.597ZM440.491 604.096C436.685 609.244 432.483 615.162 425.598 616.042C408.967 619.539 392.931 611.356 381.294 600.049C376.146 606.472 374.254 614.7 372.01 622.443C367.611 639.404 364.575 656.694 360.769 673.809C380.766 676.493 401.092 676.273 421.044 673.259C428.942 673.127 432.835 663.954 440.931 664.482C455.428 663.976 468.693 657.816 481.319 651.261C478.746 633.42 475.028 615.756 470.474 598.311C462.203 605.812 450.94 606.362 440.491 604.096ZM336.285 603.107C316.553 607.33 297.81 615.316 279.794 624.225C266.243 630.758 251.746 635.51 236.743 637.138C230.254 655.726 230.98 676.075 234.741 695.169C237.095 705.112 239.317 715.583 245.807 723.811C248.732 735.118 257.444 743.763 265.121 752.167C281.774 765.519 306.126 766.949 324.912 757.314C329.664 755.422 330.544 750.033 332.062 745.809C340.751 718.245 347.086 690.022 353.466 661.864C357.227 645.343 359.691 628.515 364.751 612.324C359.185 611.532 353.686 610.278 348.714 607.616C346.58 604.756 344.403 601.941 342.225 599.147C340.223 600.423 338.243 601.743 336.285 603.107ZM809.687 612.676C804.407 614.634 799.326 611.29 794.574 609.442C792.396 610.96 790.241 612.5 788.107 614.084C782.871 612.5 777.922 610.146 772.752 608.452C766.108 610.806 759.069 613.512 752.976 608.166C746.552 620.749 740.481 633.53 733.881 646.025C737.093 650.205 741.778 654.142 741.954 659.84C742.438 664.746 739.623 669.057 737.797 673.413C745.21 675.943 752.756 678.165 760.477 679.572C763.403 674.645 766.46 668.419 772.972 667.935C779.329 667.165 783.377 672.775 787.117 676.955C799.15 679.506 811.667 679.088 823.788 677.438C831.069 676.669 835.447 670.157 841.606 667.099C848.118 665.142 853.573 669.849 858.633 673.149C866.354 666.989 872.69 659.312 877.727 650.843C872.008 638.898 866.244 626.975 860.393 615.096C855.905 619.231 851.176 626.249 844.092 623.675C836.371 621.541 834.589 613.138 833.555 606.34C829.353 604.734 825.152 603.151 820.95 601.589C817.65 605.614 814.967 610.916 809.687 612.676ZM839.033 607.396C839.275 612.434 841.496 616.811 845.522 619.913C848.206 617.999 851.066 616.239 853.353 613.842C852.825 610.982 852.232 608.188 851.506 605.416C847.326 605.966 843.168 606.626 839.033 607.396ZM561.855 639.976C560.909 652.911 561.701 665.912 561.481 678.89C566.937 678.362 572.59 677.439 577.98 679.022C579.476 685.622 578.706 692.463 578.508 699.195C572.876 699.811 567.201 700.031 561.547 700.009C561.547 711.294 561.129 722.623 561.987 733.93C584.975 734.832 608.007 734.106 631.017 734.326C630.885 724.427 631.699 714.484 630.863 704.606C631.677 684.588 631.061 664.548 631.171 644.529C631.413 624.401 609.811 608.584 590.563 612.852C576.616 614.634 563.087 625.325 561.855 639.976ZM206.716 621.695C207.816 624.137 208.915 626.579 210.015 629.064C212.083 631.066 214.151 633.024 216.263 635.048C222.378 632.738 226.294 627.591 229.154 621.959C225.876 620.947 222.598 619.979 219.321 619.033C214.723 617.273 209.091 616.13 206.716 621.695ZM122.616 681.662C122.924 689.142 130.8 691.231 137.003 690.418C136.717 685.402 135.551 680.32 136.717 675.393C138.829 669.893 144.285 664.856 150.532 665.647C157.792 667.055 163.203 672.841 170.265 674.755C174.466 675.503 178.448 673.611 182.298 672.225C173.542 668.859 163.775 666.857 156.802 660.126C148.134 652.339 144.043 641.076 140.259 630.406C131.68 646.201 122.374 663.184 122.616 681.662ZM730.251 652.911C727.986 658.498 725.478 664.13 724.752 670.223C730.581 673.897 735.289 667.187 736.301 662.062C736.103 658.014 733.309 655.11 730.251 652.911ZM454.284 669.299C454.416 670.839 454.68 673.897 454.812 675.415C463.831 672.863 473.026 670.003 480.792 664.57C481.495 663.14 482.903 660.258 483.629 658.828C473.73 662.018 464.161 666.132 454.284 669.299ZM860.503 679.308C857.709 684.566 855.465 690.879 849.878 693.849C841.672 695.895 835.337 688.9 830.123 683.708C827.022 684.588 823.898 685.468 820.818 686.392C820.576 693.035 820.004 700.845 813.977 705.024C808.345 709.93 799.546 706.058 796.576 700.031C795.058 695.653 794.926 690.967 794.31 686.458C792.792 686.26 789.757 685.842 788.261 685.644C784.235 690.132 780.055 696.929 772.994 695.675C767.098 693.475 762.325 688.856 756.033 687.536C746.948 685.138 737.599 682.454 730.625 675.789C727.788 675.745 724.95 675.745 722.134 675.745C719.098 686.744 716.766 698.381 719.01 709.754C719.736 713.472 723.322 715.957 726.952 716.397C739.007 717.629 750.952 711.954 758.585 702.736C762.435 707.972 765.449 713.78 769.254 719.059C779.285 716.881 783.883 705.068 794.354 703.484C796.928 707.928 800.074 713.472 805.903 713.714C814.681 712.482 818.948 703.66 825.218 698.425C832.455 703.792 839.319 710.018 847.81 713.34C854.563 713.01 857.599 706.476 861.075 701.747C866.64 706.542 871.194 713.494 878.673 715.451C886.703 717.343 893.06 709.248 893.5 701.923C894.864 686.942 887.451 673.281 882.105 659.796C876.386 667.781 869.896 675.591 860.503 679.308ZM523.71 665.252C517.617 670.245 510.379 673.479 502.724 675.283C505.276 677.483 507.849 679.726 510.423 681.97C510.665 687.03 510.885 692.111 511.127 697.193C519.53 694.861 528.396 693.717 535.985 699.063C535.567 690.615 535.567 681.772 541.199 674.865C534.269 673.919 528.242 670.509 523.71 665.252ZM147.078 671.345L147.21 671.939C144.065 674.381 140.721 677.593 141.909 682.08C141.931 687.14 148.178 687.294 151.72 688.9C154.052 685.534 158.496 682.124 156.582 677.483C155.746 672.995 150.554 672.643 147.078 671.345ZM436.971 671.851C433.055 672.489 435.013 680.98 438.907 679.088C441.041 676.977 439.941 672.489 436.971 671.851ZM444.252 671.719C441.811 673.787 444.648 679.044 447.662 676.911C450.192 674.799 447.222 669.563 444.252 671.719ZM458.639 680.606C453.338 683.004 448.784 687.668 442.647 687.756C435.453 687.69 428.194 687.074 421.044 688.35C400.102 691.363 378.83 689.955 358.019 686.656C353.84 702.604 350.254 718.729 345.458 734.546C341.807 746.293 338.375 758.722 329.554 767.829C344.645 781.006 364.685 785.956 384.043 788.64C422.364 793.853 462.555 792.511 499.072 778.916C491.901 743.059 488.183 706.674 483.827 670.421C475.468 673.875 466.911 676.911 458.639 680.606ZM176.93 682.696C181.33 686.414 185.971 692.089 192.351 691.077C198.444 687.756 200.424 680.43 203.68 674.777C205 675.459 207.64 676.845 208.959 677.549C208.805 682.058 208.629 686.568 208.476 691.121C211.093 690.176 213.755 689.34 216.307 688.196C218.133 684.258 214.789 680.936 211.687 679.088C211.687 677.395 211.709 673.985 211.709 672.269C205.99 672.137 200.248 672.071 194.529 672.137C189.513 676.911 183.31 680.1 176.93 682.696ZM842.662 674.315C839.407 676.735 836.745 681.992 840.287 685.358C842.838 689.868 850.714 689.252 852.056 684.082C853.859 680.804 851.396 677.219 851.132 673.875C848.294 673.919 845.456 673.809 842.662 674.315ZM494.034 674.843C494.694 683.026 495.068 691.319 496.652 699.415C498.368 711.03 499.6 722.755 501.074 734.436C507.211 734.414 513.349 734.436 519.486 734.436C519.2 731.532 518.914 728.672 518.628 725.835C518.584 719.653 518.606 713.516 518.694 707.356C513.723 706.718 507.959 708.082 503.692 704.98C498.17 699.943 503.736 692.155 504.33 686.062C500.964 682.234 497.576 678.45 494.034 674.843ZM771.564 675.965C763.249 678.802 769.562 692.837 777.174 688.196C783.993 684.544 778.713 673.171 771.564 675.965ZM369.876 680.716C388.883 685.028 409.165 686.986 428.194 681.904C428.282 680.562 428.502 677.856 428.59 676.493C409.033 678.076 389.587 681.288 369.876 680.716ZM157.352 691.715C162.059 691.012 170.199 689.208 169.561 682.938C163.709 679.044 160.827 688.548 157.352 691.715ZM568.542 686.458C567.443 690.066 568.652 691.275 572.172 690.044C573.294 686.392 572.084 685.204 568.542 686.458ZM806.079 699.041C810.655 700.889 812.327 694.971 814.857 692.617C812.129 690.703 810.127 686.26 806.299 686.876C799.414 686.7 799.722 698.073 806.079 699.041ZM206.562 702.033C206.782 707.884 207.09 713.714 207.398 719.587C215.559 719.719 223.742 719.719 231.904 719.565C229.198 708.874 226.734 698.139 223.94 687.492C219.607 693.937 215.471 701.791 206.562 702.033ZM208.981 695.367C209.267 698.469 210.697 699.019 213.249 696.995C212.963 693.827 211.555 693.299 208.981 695.367ZM803.791 723.965C797.236 721.435 791.868 715.386 784.257 716.573C784.433 722.029 784.697 727.528 785.071 733.006L782.409 733.71C791.494 735.382 800.8 735.052 809.907 733.93C814.835 734.326 819.784 733.974 824.734 733.798C825.02 726.693 825.306 719.587 825.57 712.504C818.882 717.079 812.371 723.965 803.791 723.965ZM764.899 733.864C768.968 734.128 773.016 734.348 777.086 734.634C777.042 731.664 776.998 728.716 776.954 725.769C776.118 726.341 774.446 727.484 773.61 728.056C772.554 731.532 769.782 732.94 766.306 733.314C766.02 731.334 765.405 727.353 765.119 725.373C764.965 728.188 764.921 731.004 764.899 733.864ZM325.682 811.76C329.532 817.875 333.997 823.595 339.013 828.808C358.745 823.023 378.412 814.51 393.107 799.749C378.61 797.571 364.113 795.173 350.122 790.707C342.049 797.813 333.909 804.83 325.682 811.76ZM449.004 800.343C450.918 813.894 455.098 827.026 459.607 839.917C465.811 838.466 471.882 836.442 477.58 833.582C478.482 820.647 479.582 807.712 480 794.777C469.704 796.801 459.145 797.571 449.004 800.343ZM307.643 823.397C312.439 831.008 318.555 837.828 326.364 842.425C328.036 839.279 329.708 836.2 331.424 833.12C326.43 827.62 321.854 821.769 317.785 815.565C314.397 818.161 311.009 820.757 307.643 823.397ZM461.477 847.771C462.379 851.137 463.259 854.524 464.139 857.934C472.19 857.582 480.044 855.668 487.589 852.94C485.213 849.685 482.837 846.429 480.506 843.173C474.302 845.241 467.923 846.693 461.477 847.771Z"></path>
<path fill="#FFDF53" d="M232.695 277.511C236.919 283.715 243.101 287.96 250.8 288.202C248.424 290.996 246.048 293.812 243.673 296.65C244.025 301.093 244.333 305.559 244.487 310.047C240.395 308.947 236.391 307.539 232.41 306.109C229 307.627 225.546 308.991 221.96 310.047C222.84 302.259 221.63 294.692 216.461 288.62C223.808 288.246 228.802 283.209 232.695 277.511Z"></path>
<path fill="#374253" d="M344.886 280.833C352.828 276.631 362.815 283.935 362.463 292.536C362.815 301.973 350.342 308.397 342.951 302.347C334.921 297.508 336.219 284.265 344.886 280.833ZM346.91 296.078C350.562 299.861 353.84 294.846 356.655 292.844C354.764 290.776 354.016 286.904 350.694 286.684C345.964 285.563 342.445 293.526 346.91 296.078Z"></path>
<path fill="#394253" d="M650.662 280.216C658.361 274.849 669.646 281.184 670.064 290.292C670.812 299.553 659.703 306.548 651.608 302.017C642.985 298.189 642.501 284.836 650.662 280.216ZM654.754 286.42C650.904 288.29 653.302 292.821 653.214 296.033C656.689 295.835 663.135 295.439 662.035 290.424C662.541 287.014 657.239 283.758 654.754 286.42Z"></path>
<path fill="#FCFDFF" d="M346.91 296.077C342.445 293.526 345.964 285.562 350.694 286.684C354.016 286.904 354.764 290.776 356.655 292.844C353.84 294.846 350.562 299.861 346.91 296.077Z"></path>
<path fill="#FDFEFE" d="M569.18 317.526C573.558 315.194 580.223 315.458 581.983 320.98C583.611 330.395 571.402 339.062 563.505 332.705C558.599 327.293 562.339 318.78 569.18 317.526Z"></path>
<path fill="#FDFEFE" d="M500.964 502.487C504.483 503.235 508.003 503.983 511.545 504.753C512.689 508.624 513.723 512.518 514.713 516.478C509.983 515.026 505.297 513.552 500.568 512.188C500.7 508.932 500.832 505.699 500.964 502.487Z"></path>
<path fill="#40BB8B" d="M231.134 333.738C238.217 344.407 243.761 356.001 249.766 367.308C244.025 373.533 237.755 379.341 230.452 383.696C226.712 378.241 221.345 374.457 215.229 372.125C220.333 359.234 225.832 346.541 231.134 333.738Z"></path>
<path fill="#DCF1FF" d="M197.74 361.698C203.504 353.844 210.499 346.915 218.265 341.063C207.991 365.152 197.322 389.13 189.755 414.274C184.299 412.272 178.514 411.106 172.706 412.14C174.18 406.574 176.622 401.383 179.548 396.477C186.059 385.104 190.019 372.367 197.74 361.698Z"></path>
<path fill="#354050" d="M731.571 363.172C739.755 358.42 751.436 366.757 749.126 376.084C747.498 384.774 735.641 388.359 729.152 382.684C722.794 377.646 724.466 366.669 731.571 363.172ZM735.113 370.299C734.651 371.839 733.749 374.941 733.287 376.48C734.849 376.15 737.951 375.447 739.513 375.095C742.724 372.631 737.753 369.199 735.113 370.299Z"></path>
<path fill="#3DBD88" d="M253.55 374.017C263.911 390.12 272.864 407.08 282.852 423.425C271.61 420.345 257.818 422.083 250.8 432.378C243.871 441.178 244.707 453.123 248.512 463.066C243.013 466.256 237.381 469.203 231.64 471.931C227.372 467.598 223.148 461.944 216.527 461.57C210.323 460.822 205.484 465.354 200.688 468.499C197.938 467.158 195.211 465.794 192.505 464.452C197.52 455.763 205.396 449.493 211.951 442.124C211.995 439.132 209.158 437.196 206.562 438.78C199.742 442.498 194.749 448.679 188.941 453.695C192.263 435.634 197.982 418.146 203.9 400.811C210.037 403.693 218.331 406.817 223.786 400.921C233.114 391.22 245.499 384.994 253.55 374.017Z"></path>
<path fill="#F07172" d="M320.161 393.903C335.515 375.975 361.187 370.255 383.758 374.171C405.492 377.998 425.554 390.516 439.193 407.806C436.927 410.358 433.144 409.918 430.13 410.71C407.758 413.79 385.583 418.343 364.091 425.273C348.098 429.87 332.502 435.876 316.245 439.506C320.447 429.496 329.29 421.687 331.006 410.666C316.883 419.377 309.426 435.15 297.591 446.413C296.645 443.377 295.699 440.341 294.753 437.35C303.904 423.249 309.338 406.882 320.161 393.903Z"></path>
<path fill="#F07172" d="M269.367 519.337C269.939 524.221 270.687 530.336 266.309 533.812C262.921 535.374 259.094 535.55 255.464 536.232C259.292 529.984 264.087 524.397 269.367 519.337Z"></path>
<path fill="#FF777D" d="M212.919 381.276C219.651 379.01 225.37 388.073 221.059 393.397C218.177 397.753 211.005 397.775 208.388 393.177C205.264 388.931 207.838 382.376 212.919 381.276Z"></path>
<path fill="#384052" d="M509.609 381.342C521.356 375.535 535.589 387.7 532.399 400.195C530.398 411.788 515.153 417.573 506.002 410.138C495.948 402.988 498.478 386.006 509.609 381.342ZM511.545 389.327C506.464 392.627 506.178 401.338 511.501 404.572C517.067 408.796 525.426 402.35 524.106 395.883C524.304 389.789 516.385 385.94 511.545 389.327Z"></path>
<path fill="#F67879" d="M511.545 389.328C516.385 385.94 524.304 389.79 524.106 395.883C525.426 402.351 517.066 408.796 511.501 404.573C506.177 401.339 506.463 392.628 511.545 389.328Z"></path>
<path fill="#D07D80" d="M772.972 393.486C776.338 393.222 779.088 394.564 781.287 397.489C778.01 400.525 775.216 404.001 772.466 407.543C772.114 402.857 770.816 397.907 772.972 393.486Z"></path>
<path fill="#A7A9B7" d="M671.34 399.909C676.752 399.865 682.163 399.843 687.597 399.843C687.905 414.252 687.817 428.683 687.421 443.114C681.745 438.626 676.378 433.786 671.098 428.859C671.23 419.202 671.274 409.566 671.34 399.909Z"></path>
<path fill="#FEEC6E" d="M788.217 409.127C791.318 400.811 803.483 397.358 809.005 405.453C804.869 405.849 800.734 406.113 796.62 406.399C795.674 409.171 794.75 411.942 793.804 414.736C791.868 412.888 789.932 411.106 788.217 409.127Z"></path>
<path fill="#FEEC6E" d="M784.741 533.439C792.396 528.621 800.778 540.038 792.924 545.274C785.819 551.763 777.481 537.816 784.741 533.439ZM785.181 537.134C782.937 539.994 787.953 543.316 790.086 540.632C792.308 537.728 787.271 534.406 785.181 537.134Z"></path>
<path fill="#FFE352" d="M770.442 427.318C775.106 422.391 779.836 417.529 784.477 412.58C784.433 420.543 782.805 428.55 777.24 434.556C774.754 432.334 772.51 429.914 770.442 427.318Z"></path>
<path fill="#DDF1FF" d="M781.771 439.242C785.137 433.456 787.425 427.143 789.229 420.741C790.505 427.077 792.814 433.236 793.452 439.704C791.341 446.061 787.843 451.847 785.225 458.006C784.455 451.671 783.179 445.423 781.771 439.242Z"></path>
<path fill="#D9F0FF" d="M145.121 494.259C148.992 470.325 154.074 446.105 165.359 424.459C166.921 432.928 174.114 438.164 182.584 438.296C179.856 448.547 180.45 459.414 177.744 469.599C164.347 490.278 148.178 510.384 143.163 535.176C141.161 521.537 143.493 507.788 145.121 494.259Z"></path>
<path fill="#FFEA59" d="M805.133 433.391C808.565 428.045 817.76 429.409 819.564 435.48C821.016 440.452 815.451 443.246 812.547 446.128C808.895 442.916 803.044 439.11 805.133 433.391Z"></path>
<path fill="#F2DAB0" d="M525.25 537.508C559.347 503.323 594.544 470.194 629.191 436.537C669.756 473.098 710.717 509.241 750.82 546.308C742.284 561.926 729.613 577.325 730.911 596.156C731.087 603.107 737.071 607.309 742.262 610.806C733.749 627.613 725.126 644.442 717.844 661.842C711.685 677.109 706.955 693.894 710.013 710.436C711.377 718.532 718.548 724.999 726.754 725.461C737.467 726.803 747.52 722.14 756.627 717.124C758.343 719.192 760.103 721.26 761.885 723.327C760.829 722.909 758.695 722.052 757.617 721.634C757.485 725.835 757.419 730.103 757.331 734.349C718.482 734.371 679.655 734.371 640.807 734.283C640.631 704.365 640.96 674.447 640.565 644.53C640.301 628.955 630.357 614.436 616.432 607.771C609.591 604.053 601.716 603.657 594.236 602.293C582.357 599.367 568.476 597.52 557.895 605.175C545.73 614.304 537.283 628.163 534.049 642.968C533.125 648.621 532.025 654.869 534.731 660.258C538.669 661.226 542.738 661.534 546.786 662.106C548.436 663.976 550.086 665.868 551.736 667.782C551.494 677.395 552.352 687.052 551.516 696.666L548.656 699.855C546.94 694.642 544.938 689.45 544.63 683.951C545.378 679.177 549.206 675.525 549.866 670.752C545.422 664.262 535.061 666.88 530.903 659.994C528.682 657.751 527.23 654.341 524.04 653.395C518.584 655.595 517.902 662.986 512.667 665.626C508.927 667.606 504.901 669.014 500.964 670.576C501.36 663.052 500.59 651.547 490.823 650.887C489.877 644.2 488.205 637.6 487.831 630.847C488.425 620.178 488.953 609.487 488.865 598.795C499.908 588.83 510.511 577.435 515.043 562.938C518.43 554.469 517.968 543.976 525.25 537.508ZM605.653 490.608C604.641 512.122 605.543 533.725 605.257 555.261C615.553 557.747 626.2 556.515 636.671 556.801C639.883 556.559 643.534 557.153 646.306 555.107C648.638 551.653 647.912 547.298 648.132 543.404C647.912 527.983 648.044 512.562 647.89 497.164C647.384 493.776 648.506 487.968 643.556 487.88C631.743 487.33 619.82 487.176 608.007 488.012C607.413 488.672 606.225 489.97 605.653 490.608ZM663.685 509.065C660.385 509.637 660.407 514.234 660.275 516.896C660.099 528.687 660.407 540.478 660.253 552.269C660.473 556.185 659.593 560.673 662.321 563.972C672.088 565.248 682.031 564.566 691.842 564.456C695.142 564.808 698.53 562.542 698.288 558.957C698.97 545.67 698.288 532.361 698.552 519.074C698.486 515.4 698.684 509.527 693.844 508.999C683.835 508.185 673.672 508.075 663.685 509.065ZM549.536 519.58C546.896 530.953 549.074 542.81 548.37 554.403C548.722 560.519 546.962 567.228 549.932 572.926C559.765 573.718 570.39 574.795 579.915 572.442C584.029 564.346 580.883 554.315 581.807 545.494C580.971 536.694 584.029 526.531 579.563 518.656C569.73 518.282 558.731 516.258 549.536 519.58ZM667.71 603.107C664.257 605.131 665.489 610.213 664.983 613.622C665.379 626.843 664.323 640.13 665.467 653.307C666.016 654.011 667.094 655.419 667.644 656.123C677.06 657.091 686.629 656.959 696.044 656.035C696.682 655.353 697.958 654.011 698.596 653.351C699.234 637.886 698.816 622.356 698.838 606.891C699.19 603.041 694.724 601.677 691.666 602.139C683.703 602.293 675.476 601.281 667.71 603.107Z"></path>
<path fill="#41BB8B" d="M787.711 471.513C791.912 462.692 796.95 454.288 801.394 445.577C805.353 452.485 810.061 459.018 813.251 466.365C811.535 473.559 804.121 477.849 797.544 480.246C794.2 477.387 790.68 474.703 787.711 471.513Z"></path>
<path fill="#8E7466" d="M446.98 458.909C455.471 457.369 463.897 455.455 471.948 452.331C475.556 457.083 478.878 462.032 481.825 467.246C469.858 466.388 457.869 464.144 446.98 458.909Z"></path>
<path fill="#FFF262" d="M824.382 456.115C832.873 451.253 836.701 466.718 827.99 467.884C820.422 470.744 818.112 458.82 824.382 456.115Z"></path>
<path fill="#FDE2C7" d="M417.965 462.934C423.904 461.834 429.844 460.822 435.805 459.92C450.742 469.621 468.033 475.627 485.807 477.079C499.424 507.502 486.401 545.603 458.507 563.069C436.355 577.984 408.638 581.988 382.504 579.282C369.965 577.654 357.294 574.311 346.823 566.919C341.015 561.42 332.524 567.513 326.078 563.597C321.195 561.178 319.369 553.104 324.428 549.959C330.434 547.099 338.397 550.091 343.369 544.899C350.694 538.783 355.006 530.138 361.011 522.945C366.753 519.667 373.264 517.929 378.874 514.409C397.682 502.794 411.057 483.722 417.965 462.934ZM461.213 490.959C456.506 494.435 457.144 502.706 463.215 504.268C470.453 502.442 469.023 489.793 461.213 490.959ZM456.748 510.868C452.502 511.968 449.752 517.115 451.688 521.185C455.67 532.184 476.59 531.656 477.492 518.963C476.898 509.108 464.007 507.7 456.748 510.868ZM386.727 523.825C386.155 529.126 394.471 533.966 397.66 528.334C399.09 523.847 395.659 520.349 392.777 517.467C390.687 519.359 386.419 520.195 386.727 523.825ZM446.21 528.884C441.481 537.09 433.694 546.307 423.156 544.613C418.669 543.909 409.583 539.333 411.233 547.847C424.234 558.34 445.067 548.815 450.17 534.098C448.938 532.294 447.618 530.556 446.21 528.884ZM380.084 537.398C376.014 539.421 370.647 542.325 370.867 547.627C370.053 552.4 374.254 557.482 379.27 556.272C386.727 556.14 397.176 553.786 398.1 544.855C397.748 536.166 386.573 533.944 380.084 537.398Z"></path>
<path fill="#8F7767" d="M346.888 480.334C367.017 474.417 387.343 468.785 408.131 465.771C399.09 484.074 386.529 501.937 367.676 511.088C372.318 499.825 377.862 488.716 379.336 476.463C376.74 477.65 373.726 478.706 372.692 481.698C362.199 502.003 351.904 522.791 337.473 540.609C338.111 531.194 341.301 522.263 343.016 513.046C333.799 518.787 330.763 529.654 327.2 539.202C322.976 541.511 317.63 542.897 315.123 547.363C313.165 552.665 312.725 558.582 309.359 563.334C302.056 553.192 294.136 542.765 292.201 530.072C289.561 518.303 295.654 507.282 298.14 496.085C314.727 491.905 330.477 485.13 346.888 480.334ZM310.789 534.802C314.705 524.551 318.334 513.838 317.806 502.706C310.569 511.374 306.653 523.913 310.789 534.802Z"></path>
<path fill="#3DBC89" d="M188.391 470.523C191.229 472.261 194.067 473.999 196.882 475.759C198.18 484.25 202.228 494.04 212.039 495.007C222.026 497.097 229.066 488.562 232.498 480.379C239.911 477.607 246.972 474.021 253.616 469.709C262.217 475.935 273.018 478.135 283.225 474.725C283.291 484.382 287.537 493.952 285.161 503.609C282.632 513.464 284.325 523.627 284.127 533.658C282.412 527.301 282.346 520.679 280.96 514.278C275.064 509.13 268.355 504.027 260.545 502.377C251.614 500.991 245.587 508.756 239.955 514.322C235.093 513.882 229.55 511.572 225.172 514.828C213.865 521.977 202.316 530.579 197.256 543.47C193.385 553.215 191.691 565.578 198.268 574.575C202.536 580.273 210.411 579.767 216.659 580.999C209.795 589.094 200.27 595.187 190.063 598.025C183.046 596.683 178.074 588.962 170.287 590.282C159.111 590.436 152.622 603.921 157.154 613.512C159.287 620.045 165.667 623.279 171.694 625.413C172.86 630.011 172.816 637.248 179.108 637.732C187.973 638.04 194.507 630.869 201.018 625.875C204.098 630.253 206.804 635.686 212.193 637.6C216.967 639.866 222.136 638.436 226.954 637.226C223.72 648.907 221.916 660.962 222.048 673.105C221.278 669.783 220.487 666.55 219.673 663.294C204.846 664.724 189.425 666.66 174.972 662.062C156.692 656.584 144.857 636.566 146.089 618.154C154.228 593.428 164.677 568.482 182.892 549.409C184.739 547.077 187.577 545.031 187.379 541.754C184.189 539.95 180.67 541.072 177.326 541.512C173.828 538.982 170.705 534.868 165.953 535.088C160.123 534.736 155.922 539.598 151.412 542.48C155.108 514.96 172.904 492.544 188.391 470.523Z"></path>
<path fill="#3DBC89" d="M790.043 496.415C801.35 489.684 813.185 483.194 821.83 473.009C825.702 478.487 829.133 484.25 832.169 490.234C831.267 496.019 830.915 501.893 829.683 507.656C824.69 513.948 816.176 517.006 812.921 524.903C809.269 526.091 805.595 527.213 801.878 528.269C793.386 524.903 783.465 526.311 775.744 520.987C772.84 519.206 770.046 517.27 767.252 515.4C769.056 508.624 771.036 501.893 773.17 495.228C778.625 496.789 784.719 500.419 790.043 496.415Z"></path>
<path fill="#F9747C" d="M210.191 470.985C214.921 467.465 222.466 471.513 222.774 477.342C224.732 483.898 216.813 490.431 210.851 486.868C204.89 483.876 204.736 474.549 210.191 470.985Z"></path>
<path fill="#FDD852" d="M780.099 479.982C783.905 480.378 788.789 479.63 791.076 483.568C793.628 486.956 789.955 490.388 788.899 493.599C787.667 490.102 786.479 486.604 785.269 483.106C784.103 482.402 781.749 480.972 780.561 480.268L780.099 479.982Z"></path>
<path fill="#FDD852" d="M799.766 594.241C803.132 589.754 810.941 590.59 813.075 595.891C813.779 599.081 812.459 602.293 811.931 605.46C811.931 603.217 811.909 598.751 811.887 596.507C807.619 596.903 802.516 594.747 798.974 597.981C798.644 599.829 798.006 603.481 797.676 605.328C798.094 601.567 796.73 597.167 799.766 594.241Z"></path>
<path fill="#FDD852" d="M561.855 639.975C563.087 625.325 576.616 614.633 590.563 612.852C598.702 618.857 609.569 621.959 614.915 631.176C623.032 644.419 623.758 660.412 624.374 675.524C624.638 685.556 628.004 695.081 630.863 704.606C631.699 714.483 630.885 724.427 631.017 734.326C608.007 734.106 584.975 734.832 561.987 733.93C561.129 722.623 561.547 711.294 561.547 700.009C567.201 700.031 572.876 699.811 578.508 699.195C578.706 692.463 579.476 685.622 577.98 679.022C572.59 677.438 566.937 678.362 561.481 678.89C561.701 665.911 560.909 652.91 561.855 639.975Z"></path>
<path fill="#FFF495" d="M777.547 490.52C774.644 486.846 778.779 483.194 780.561 480.269C781.749 480.972 784.103 482.402 785.269 483.106C786.479 486.604 787.667 490.102 788.899 493.599C784.961 493.885 779.461 495.227 777.547 490.52Z"></path>
<path fill="#354051" d="M605.653 490.608C606.225 489.97 607.413 488.672 608.007 488.012C619.82 487.176 631.743 487.33 643.556 487.88C648.506 487.968 647.384 493.776 647.89 497.163C648.044 512.562 647.912 527.983 648.132 543.404C647.912 547.297 648.638 551.653 646.306 555.107C643.534 557.152 639.883 556.559 636.671 556.8C626.2 556.515 615.553 557.746 605.257 555.261C605.543 533.724 604.642 512.122 605.653 490.608ZM614.343 496.789C614.497 513.64 614.299 530.491 614.387 547.341C622.416 547.341 630.423 547.297 638.453 547.253C638.431 530.403 638.497 513.596 638.541 496.767C630.467 496.723 622.416 496.723 614.343 496.789Z"></path>
<path fill="#384055" d="M461.213 490.96C469.022 489.794 470.452 502.443 463.215 504.268C457.143 502.707 456.505 494.435 461.213 490.96Z"></path>
<path fill="#F77678" d="M839.956 496.218C843.74 494.524 850.472 496.416 849.284 501.651C849.46 506.139 842.926 512.672 838.989 508.207C835.205 505.193 834.941 497.933 839.956 496.218Z"></path>
<path fill="#76D9F5" d="M614.343 496.789C622.416 496.723 630.468 496.723 638.541 496.767C638.497 513.596 638.431 530.402 638.453 547.253C630.424 547.297 622.416 547.341 614.387 547.341C614.299 530.49 614.497 513.64 614.343 496.789Z"></path>
<path fill="#474B55" d="M310.789 534.802C306.654 523.913 310.569 511.374 317.807 502.707C318.335 513.838 314.705 524.551 310.789 534.802Z"></path>
<path fill="#364151" d="M663.685 509.064C673.672 508.075 683.835 508.185 693.844 508.999C698.684 509.527 698.486 515.4 698.552 519.074C698.288 532.361 698.97 545.67 698.288 558.956C698.53 562.542 695.142 564.808 691.843 564.456C682.031 564.566 672.088 565.248 662.321 563.972C659.593 560.672 660.473 556.185 660.253 552.269C660.407 540.478 660.099 528.687 660.275 516.896C660.407 514.234 660.385 509.636 663.685 509.064ZM669.734 517.864C669.25 530.315 669.47 542.766 669.514 555.239C676.07 555.239 682.647 555.195 689.203 555.063C689.269 542.7 689.225 530.337 689.115 517.974C682.647 517.952 676.18 517.908 669.734 517.864Z"></path>
<path fill="#F76E71" d="M254.562 511.11C259.402 507.018 264.417 513.177 268.949 514.871C259.512 520.349 252.78 529.038 247.017 538.101C246.599 528.774 245.719 517.027 254.562 511.11Z"></path>
<path fill="#F8B29B" d="M456.748 510.868C464.007 507.7 476.898 509.108 477.492 518.964C476.59 531.656 455.67 532.184 451.688 521.185C449.752 517.116 452.502 511.968 456.748 510.868Z"></path>
<path fill="#467371" d="M834.083 511.11C839.561 514.256 839.824 520.987 840.814 526.531C837.163 522.109 834.831 516.785 834.083 511.11Z"></path>
<path fill="#74D9F4" d="M669.734 517.863C676.18 517.907 682.647 517.951 689.115 517.973C689.225 530.336 689.269 542.699 689.203 555.062C682.647 555.194 676.07 555.238 669.514 555.238C669.47 542.765 669.25 530.314 669.734 517.863Z"></path>
<path fill="#F66F72" d="M225.436 525.651C225.634 521.603 229.462 519.535 231.948 516.939C233.663 518.831 235.379 520.723 237.095 522.659C236.523 526.905 235.973 531.172 235.445 535.484C232.014 532.294 228.362 529.302 225.436 525.651Z"></path>
<path fill="#353D4E" d="M386.727 523.825C386.419 520.196 390.687 519.36 392.777 517.468C395.659 520.35 399.09 523.847 397.66 528.335C394.471 533.966 386.155 529.127 386.727 523.825Z"></path>
<path fill="#374151" d="M549.536 519.579C558.731 516.258 569.73 518.281 579.563 518.655C584.029 526.531 580.971 536.694 581.807 545.493C580.883 554.314 584.029 564.346 579.915 572.441C570.39 574.795 559.765 573.717 549.932 572.925C546.962 567.227 548.722 560.518 548.37 554.402C549.074 542.809 546.896 530.952 549.536 519.579ZM557.279 527.675C557.279 530.468 557.279 533.306 557.279 536.144C557.279 545.471 557.015 554.82 557.939 564.126L557.521 564.456C562.427 564.302 567.332 564.302 572.238 564.368C572.458 551.983 572.678 539.576 572.084 527.213C567.134 527.367 562.207 527.521 557.279 527.675Z"></path>
<path fill="#FFE05E" d="M754.185 534.934C753.657 529.787 754.405 524.617 756.539 519.91C760.609 521.692 769.298 523.781 766.878 529.941C765.866 536.188 758.673 534.715 754.185 534.934Z"></path>
<path fill="#FFF88A" d="M822.204 521.955C824.492 519.315 828.232 521.625 831.179 521.449C831.773 523.187 832.983 526.663 833.577 528.401C830.937 531.084 827.946 535.044 823.568 533.504C818.552 532.25 817.958 524.441 822.204 521.955Z"></path>
<path fill="#86DFFC" d="M557.279 527.675C562.207 527.521 567.134 527.367 572.084 527.213C572.678 539.576 572.458 551.983 572.238 564.368C567.332 564.302 562.427 564.302 557.521 564.456L557.939 564.126C562.691 560.474 567.86 557.02 571.226 551.961C572.634 546.087 571.71 540.016 571.578 534.076C566.804 534.736 562.053 535.44 557.279 536.144C557.279 533.306 557.279 530.469 557.279 527.675Z"></path>
<path fill="#353E50" d="M446.21 528.885C447.618 530.557 448.938 532.294 450.17 534.098C445.067 548.815 424.234 558.34 411.233 547.847C409.583 539.334 418.669 543.91 423.156 544.614C433.693 546.307 441.481 537.09 446.21 528.885Z"></path>
<path fill="#3EBD89" d="M751.964 561.772C759.443 550.729 764.987 538.058 775.106 529.017C780.319 529.545 777.086 535.705 778.054 539.004C776.14 547.936 787.579 554.843 795.014 550.377C800.272 547.804 801.592 541.688 803.726 536.804C807.399 536.166 811.095 535.572 814.791 535.001C818.948 537.068 823.018 540.962 828.012 539.906C833.423 539.092 836.679 534.253 840.375 530.799C848.58 542.678 854.959 555.679 863.275 567.514C868.114 575.807 874.78 584.827 873.174 594.968C868.202 600.951 861.053 595.76 856.147 592.68C854.058 594.528 851.99 596.398 849.944 598.311C840.727 597.938 830.937 597.718 822.886 592.68C817.408 589.644 812.635 584.409 805.969 584.277C799.986 583.991 796.202 589.336 792.177 592.9C788.547 590.26 784.653 586.256 779.726 588.214C774.072 589.292 772.004 595.188 769.496 599.609C766.813 600.335 764.151 601.083 761.489 601.853C760.609 598.729 759.729 595.65 758.827 592.57C757.815 592.614 755.791 592.702 754.802 592.746C753.284 595.298 751.81 597.849 750.336 600.445C746.794 599.631 740.833 601.083 740.173 596.112C738.633 583.617 745.65 572.046 751.964 561.772Z"></path>
<path fill="#D2656C" d="M221.081 534.12C224.952 537.464 228.758 540.896 232.542 544.371C228.516 545.075 224.49 545.845 220.465 546.637C220.619 542.435 220.817 538.278 221.081 534.12Z"></path>
<path fill="#B7E8FC" d="M557.279 536.144C562.053 535.44 566.805 534.736 571.578 534.076C571.71 540.016 572.634 546.087 571.226 551.961C567.861 557.02 562.691 560.474 557.939 564.126C557.015 554.821 557.279 545.471 557.279 536.144Z"></path>
<path fill="#F8B29A" d="M380.084 537.398C386.573 533.945 397.748 536.167 398.1 544.856C397.176 553.787 386.727 556.141 379.27 556.273C374.254 557.483 370.052 552.401 370.866 547.628C370.646 542.326 376.014 539.422 380.084 537.398Z"></path>
<path fill="#FEF99A" d="M785.181 537.134C787.271 534.406 792.308 537.728 790.087 540.632C787.953 543.316 782.937 539.994 785.181 537.134Z"></path>
<path fill="#374052" d="M897.196 538.168C904.037 533.461 913.958 537.596 915.96 545.45C918.952 555.459 906.523 565.424 897.394 559.727C890.266 554.271 890.53 543.888 897.196 538.168ZM900.187 552.445C903.817 556.647 907.887 551.521 909.713 548.332C907.975 546.594 906.237 544.9 904.521 543.206C901.309 544.9 896.382 548.683 900.187 552.445Z"></path>
<path fill="#FFDD50" d="M203.878 567.118C199.786 558.186 203.504 548.265 208.19 540.39C210.653 545.625 212.567 551.609 217.363 555.305C221.96 559.286 228.208 559.99 233.949 561.134C229.11 565.776 223.874 571.451 216.571 571.253C212.259 571.099 205.704 572.287 203.878 567.118Z"></path>
<path fill="#FA7578" d="M275.79 545.647C278.584 543.821 281.378 542.039 284.193 540.257C288.373 549.827 294.51 558.318 301.374 566.149C297.392 568.899 293.323 571.517 289.187 574.069C286.327 563.883 281.554 554.446 275.79 545.647Z"></path>
<path fill="#F9FBFE" d="M900.187 552.445C896.382 548.684 901.309 544.9 904.521 543.206C906.237 544.9 907.975 546.594 909.713 548.332C907.887 551.521 903.817 556.647 900.187 552.445Z"></path>
<path fill="#7F5764" d="M223.984 548.375C226.228 546.791 229.924 548.199 230.958 550.663C230.32 554.381 222.576 551.785 223.984 548.375Z"></path>
<path fill="#D7EFFF" d="M146.594 591.777C141.711 578.424 141.381 563.84 142.877 549.849C144.879 557.856 152.974 560.32 159.617 563.29C155.108 572.705 150.576 582.12 146.594 591.777Z"></path>
<path fill="#F76E70" d="M258.565 557.46C261.997 555.041 265.429 552.665 268.883 550.311C273.502 558.802 277.132 567.778 280.212 576.951C272.974 570.461 265.759 563.95 258.565 557.46Z"></path>
<path fill="#F37271" d="M242.243 571.407C244.091 566.985 249.062 564.785 252.384 561.574C259.115 568.217 266.485 574.487 271.346 582.714C266.265 586.278 260.281 588.148 254.43 590.061C250.25 583.924 245.521 578.094 242.243 571.407Z"></path>
<path fill="#F17171" d="M316.333 568.019C324.956 574.003 335.647 572.177 345.195 575.125C343.611 579.898 342.115 584.672 340.729 589.533C328.476 593.999 316.135 598.201 303.794 602.38C301.572 595.209 298.536 588.323 294.489 581.988C301.858 577.478 309.206 572.925 316.333 568.019Z"></path>
<path fill="#EF6F73" d="M223.874 581.944C227.614 579.106 231.398 576.335 235.269 573.673C239.449 579.964 243.695 586.212 247.83 592.547C241.187 593.493 234.543 594.439 227.878 595.209C226.558 590.766 225.216 586.344 223.874 581.944Z"></path>
<path fill="#FDE3CA" d="M355.688 583.572C362.155 582.627 370.492 586.52 370.25 593.978C370.272 601.347 361.561 606.517 355.204 602.381C347.57 599.015 348.472 586.784 355.688 583.572Z"></path>
<path fill="#F37272" d="M232.366 604.031C250.272 602.755 267.233 596.332 283.116 588.346C286.019 593.538 289.605 598.619 290.595 604.625L290.837 606.451C275.416 616.46 258.302 624.005 240.263 627.745C237.667 619.826 235.116 611.884 232.366 604.031Z"></path>
<path fill="#40C18F" d="M192.175 606.868C200.468 601.787 209.532 597.959 217.275 591.954C219.563 597.629 221.653 603.415 223.544 609.266C217.055 609.618 208.08 604.691 203.658 611.576C197.851 618.902 189.997 624.093 182.012 628.757C185.619 621.563 188.325 613.93 192.175 606.868Z"></path>
<path fill="#F77773" d="M780.297 594.462C787.535 592.636 792.132 606.143 783.839 606.517C777.042 607.639 773.39 596.925 780.297 594.462Z"></path>
<path fill="#FFFAB2" d="M798.974 597.981C802.516 594.747 807.619 596.903 811.887 596.507C811.909 598.751 811.931 603.217 811.931 605.461C807.399 608.518 802.296 607.726 797.676 605.329C798.006 603.481 798.644 599.829 798.974 597.981Z"></path>
<path fill="#F87173" d="M166.261 598.597C171.387 594.615 179.548 598.993 180.406 605.175C182.32 612.566 172.75 620.221 166.239 615.668C160.124 612.082 160.915 602.491 166.261 598.597Z"></path>
<path fill="#F3DAB0" d="M336.285 603.106C338.243 601.742 340.223 600.422 342.224 599.146C344.402 601.94 346.58 604.756 348.714 607.616C328.08 641.911 315.057 679.924 299.944 716.793C295.72 726.604 291.079 736.635 283.269 744.181C278.408 748.998 271.412 750.23 265.121 752.166C257.443 743.763 248.732 735.117 245.806 723.81C245.102 702.34 242.551 680.606 246.73 659.334C247.742 655.132 248.6 650.16 252.626 647.763C260.523 642.791 269.41 639.645 277.572 635.158C297.128 624.444 318.664 617.163 336.285 603.106Z"></path>
<path fill="#AB9984" d="M279.794 624.225C297.81 615.316 316.553 607.331 336.285 603.107C318.665 617.164 297.128 624.445 277.572 635.158C269.411 639.646 260.523 642.792 252.626 647.763C248.6 650.161 247.742 655.133 246.731 659.334C242.551 680.607 245.103 702.341 245.807 723.811C239.317 715.584 237.095 705.113 234.741 695.17C230.98 676.075 230.254 655.727 236.743 637.138C251.746 635.51 266.243 630.759 279.794 624.225Z"></path>
<path fill="#364152" d="M667.71 603.106C675.476 601.28 683.703 602.292 691.667 602.138C694.724 601.676 699.19 603.04 698.838 606.89C698.816 622.355 699.234 637.885 698.596 653.35C697.958 654.01 696.682 655.352 696.044 656.034C686.629 656.958 677.06 657.09 667.644 656.122C667.095 655.418 666.017 654.01 665.467 653.306C664.323 640.129 665.379 626.842 664.983 613.621C665.489 610.212 664.257 605.13 667.71 603.106ZM674.354 611.773C674.332 617.999 674.266 624.246 674.332 630.494C674.332 636.082 674.332 641.691 674.354 647.301C679.458 647.301 684.583 647.301 689.709 647.301C689.731 640.173 689.731 633.09 689.687 625.984C689.665 621.255 689.621 616.525 689.599 611.817C684.517 611.773 679.436 611.773 674.354 611.773Z"></path>
<path fill="#3DBD89" d="M809.687 612.676C814.966 610.916 817.65 605.614 820.95 601.588C825.152 603.15 829.353 604.734 833.555 606.34C834.589 613.138 836.371 621.541 844.092 623.675C851.175 626.248 855.905 619.231 860.393 615.095C866.244 626.974 872.008 638.897 877.727 650.842C872.69 659.312 866.354 666.989 858.633 673.149C853.573 669.849 848.118 665.141 841.606 667.099C835.447 670.157 831.069 676.668 823.788 677.438C811.667 679.088 799.15 679.506 787.117 676.954C783.377 672.775 779.329 667.165 772.972 667.935C766.46 668.419 763.403 674.645 760.477 679.572C752.755 678.164 745.21 675.942 737.797 673.413C739.622 669.057 742.438 664.745 741.954 659.84C741.778 654.142 737.093 650.204 733.881 646.025C740.48 633.53 746.552 620.749 752.975 608.166C759.069 613.511 766.108 610.806 772.752 608.452C777.921 610.146 782.871 612.499 788.107 614.083C790.24 612.499 792.396 610.96 794.574 609.442C799.326 611.29 804.407 614.633 809.687 612.676Z"></path>
<path fill="#F57677" d="M839.033 607.396C843.168 606.626 847.326 605.966 851.506 605.417C852.232 608.188 852.826 610.982 853.353 613.842C851.066 616.24 848.206 618 845.522 619.913C841.496 616.812 839.275 612.434 839.033 607.396Z"></path>
<path fill="#AD9C86" d="M348.714 607.616C353.686 610.278 359.185 611.531 364.751 612.323C359.691 628.514 357.228 645.343 353.466 661.863C347.086 690.021 340.751 718.245 332.062 745.809C330.544 750.032 329.664 755.422 324.912 757.314C306.126 766.949 281.774 765.519 265.121 752.166C271.413 750.23 278.408 748.998 283.27 744.181C291.079 736.635 295.721 726.604 299.944 716.793C315.057 679.924 328.08 641.911 348.714 607.616Z"></path>
<path fill="#B4E7F9" d="M674.354 611.773C679.435 611.773 684.517 611.773 689.599 611.817C689.621 616.525 689.665 621.255 689.687 625.984C684.561 627.502 679.435 628.998 674.332 630.494C674.266 624.246 674.332 617.999 674.354 611.773Z"></path>
<path fill="#FFEBE3" d="M206.715 621.695C209.091 616.13 214.723 617.274 219.32 619.033C219.408 621.189 219.562 625.523 219.65 627.679C216.439 628.141 213.227 628.581 210.015 629.065C208.915 626.579 207.815 624.137 206.715 621.695Z"></path>
<path fill="#F36D78" d="M219.32 619.034C222.598 619.98 225.876 620.948 229.154 621.959C226.294 627.591 222.378 632.739 216.263 635.048C214.151 633.025 212.083 631.067 210.015 629.065C213.227 628.581 216.439 628.141 219.65 627.679C219.562 625.523 219.408 621.19 219.32 619.034Z"></path>
<path fill="#81D9F5" d="M674.332 630.494C679.435 628.998 684.561 627.502 689.687 625.984C689.731 633.09 689.731 640.173 689.709 647.301C684.583 647.301 679.457 647.301 674.354 647.301C674.332 641.691 674.332 636.082 674.332 630.494Z"></path>
<path fill="#3EBB8A" d="M122.616 681.662C122.374 663.184 131.68 646.201 140.259 630.406C144.043 641.075 148.134 652.338 156.802 660.126C163.775 666.857 173.542 668.859 182.298 672.225C178.448 673.611 174.466 675.503 170.265 674.755C163.203 672.841 157.792 667.055 150.532 665.647C144.285 664.855 138.829 669.893 136.717 675.393C135.551 680.32 136.717 685.402 137.003 690.417C130.8 691.231 122.924 689.141 122.616 681.662Z"></path>
<path fill="#F87273" d="M730.251 652.911C733.309 655.11 736.103 658.014 736.301 662.062C735.289 667.187 730.581 673.897 724.752 670.223C725.478 664.13 727.986 658.498 730.251 652.911Z"></path>
<path fill="#363F4F" d="M908.195 658.894C916.158 654.824 927.004 661.842 925.464 670.927C924.408 680.386 911.319 684.72 904.895 677.658C898.604 672.445 901.354 662.128 908.195 658.894ZM912.485 664.943C906.721 665.977 908.063 675.613 913.805 674.535C920.36 674.491 918.82 663.558 912.485 664.943Z"></path>
<path fill="#866C5F" d="M454.284 669.299C464.161 666.131 473.73 662.017 483.629 658.828C482.903 660.258 481.496 663.139 480.792 664.569C473.026 670.003 463.831 672.862 454.812 675.414C454.68 673.896 454.416 670.839 454.284 669.299Z"></path>
<path fill="#3FBC8A" d="M860.503 679.309C869.896 675.591 876.386 667.782 882.105 659.796C887.451 673.281 894.864 686.942 893.5 701.923C893.06 709.248 886.703 717.344 878.673 715.452C871.194 713.494 866.64 706.543 861.075 701.747C857.599 706.477 854.563 713.01 847.81 713.34C839.319 710.018 832.455 703.793 825.218 698.425C818.948 703.661 814.681 712.482 805.903 713.714C800.074 713.472 796.928 707.928 794.354 703.485C783.883 705.069 779.285 716.882 769.254 719.06C765.448 713.78 762.435 707.972 758.585 702.737C750.952 711.954 739.007 717.63 726.952 716.398C723.322 715.958 719.736 713.472 719.01 709.754C716.766 698.381 719.098 686.744 722.134 675.745C724.95 675.745 727.788 675.745 730.625 675.789C737.599 682.454 746.948 685.138 756.033 687.536C762.325 688.856 767.098 693.476 772.994 695.675C780.055 696.929 784.235 690.132 788.261 685.644C789.757 685.842 792.792 686.26 794.31 686.458C794.926 690.968 795.058 695.653 796.576 700.031C799.546 706.059 808.345 709.93 813.977 705.025C820.004 700.845 820.576 693.036 820.818 686.392C823.898 685.468 827.022 684.588 830.123 683.708C835.337 688.9 841.672 695.895 849.878 693.85C855.465 690.88 857.709 684.566 860.503 679.309Z"></path>
<path fill="#FEDB55" d="M523.71 665.252C528.241 670.51 534.269 673.919 541.198 674.865C535.567 681.773 535.567 690.616 535.985 699.063C528.396 693.718 519.53 694.862 511.127 697.193C510.885 692.112 510.665 687.03 510.423 681.971C507.849 679.727 505.275 677.483 502.724 675.283C510.379 673.479 517.616 670.246 523.71 665.252Z"></path>
<path fill="#FDE053" d="M147.079 671.345C150.554 672.643 155.746 672.995 156.582 677.483C158.496 682.124 154.052 685.534 151.72 688.9C149.652 683.4 148.245 677.703 147.211 671.939L147.079 671.345Z"></path>
<path fill="#FEF481" d="M141.909 682.08C140.721 677.593 144.065 674.381 147.21 671.939C148.244 677.702 149.652 683.4 151.72 688.9C148.178 687.294 141.931 687.14 141.909 682.08Z"></path>
<path fill="#3DBD8D" d="M176.93 682.696C183.31 680.101 189.513 676.911 194.529 672.137C200.248 672.071 205.99 672.137 211.709 672.269C211.709 673.985 211.687 677.395 211.687 679.089C211.005 678.715 209.641 677.923 208.959 677.549C207.64 676.845 205 675.459 203.68 674.777C200.424 680.431 198.444 687.756 192.351 691.078C185.971 692.09 181.33 686.414 176.93 682.696Z"></path>
<path fill="#F97478" d="M842.662 674.315C845.456 673.809 848.294 673.919 851.132 673.875C851.396 677.219 853.859 680.804 852.056 684.082C850.714 689.252 842.838 689.868 840.287 685.358C836.745 681.992 839.407 676.735 842.662 674.315Z"></path>
<path fill="#F6E6C7" d="M494.034 674.842C497.576 678.45 500.964 682.234 504.33 686.061C503.736 692.155 498.17 699.942 503.692 704.98C507.959 708.082 513.723 706.718 518.694 707.356C518.606 713.515 518.584 719.653 518.628 725.834C516.253 722.006 513.899 718.201 511.523 714.395C505.649 710.414 500.062 705.75 496.652 699.414C495.068 691.319 494.694 683.026 494.034 674.842Z"></path>
<path fill="#F97074" d="M771.564 675.965C778.713 673.171 783.993 684.544 777.174 688.196C769.562 692.838 763.249 678.803 771.564 675.965Z"></path>
<path fill="#837867" d="M208.959 677.548C209.641 677.922 211.005 678.714 211.687 679.088C214.789 680.936 218.133 684.258 216.307 688.195C213.755 689.339 211.093 690.175 208.475 691.121C208.629 686.568 208.805 682.058 208.959 677.548Z"></path>
<path fill="#856A64" d="M369.876 680.716C389.587 681.288 409.033 678.076 428.59 676.492C428.502 677.856 428.282 680.562 428.194 681.904C409.165 686.985 388.883 685.028 369.876 680.716Z"></path>
<path fill="#3D9B78" d="M157.352 691.715C160.827 688.548 163.709 679.044 169.561 682.938C170.199 689.207 162.059 691.011 157.352 691.715Z"></path>
<path fill="#C1AA65" d="M568.542 686.458C572.084 685.204 573.294 686.392 572.172 690.044C568.652 691.276 567.442 690.066 568.542 686.458Z"></path>
<path fill="#FF707C" d="M806.079 699.04C799.722 698.072 799.414 686.699 806.299 686.875C810.127 686.26 812.129 690.703 814.856 692.617C812.327 694.971 810.655 700.888 806.079 699.04Z"></path>
<path fill="#8D7769" d="M206.562 702.033C215.471 701.791 219.607 693.937 223.94 687.492C226.734 698.139 229.198 708.874 231.904 719.565C223.742 719.719 215.559 719.719 207.398 719.587C207.09 713.714 206.782 707.884 206.562 702.033Z"></path>
<path fill="#E0F2FE" d="M173.278 695.302C173.696 695.082 174.532 694.642 174.95 694.422C182.122 698.426 190.041 700.955 198.356 699.855C198.928 706.477 199.522 713.12 200.16 719.742C196.024 719.742 191.911 719.786 187.775 719.83C182.87 711.69 178.822 703.045 173.278 695.302Z"></path>
<path fill="#605C61" d="M208.982 695.367C211.555 693.3 212.963 693.828 213.249 696.995C210.697 699.019 209.268 698.469 208.982 695.367Z"></path>
<path fill="#EFDBB3" d="M527.78 707.334C531.893 707.18 536.029 706.96 540.165 706.828C531.365 712.305 533.147 723.414 532.861 732.301C531.717 732.433 529.43 732.741 528.286 732.895L527.318 733.027C527.472 724.448 527.714 715.891 527.78 707.334Z"></path>
<path fill="#8D7667" d="M803.792 723.965C812.371 723.965 818.882 717.08 825.57 712.504C825.306 719.587 825.02 726.693 824.734 733.798C819.784 733.974 814.835 734.326 809.907 733.93C801.68 732.94 793.32 731.378 785.071 733.006C784.697 727.529 784.433 722.029 784.257 716.574C791.868 715.386 797.236 721.435 803.792 723.965Z"></path>
<path fill="#D9EFFA" d="M833.599 717.058C837.009 718.927 840.418 720.819 843.916 722.579C841.056 726.495 838.284 730.499 835.183 734.26L833.093 734.458C833.181 728.651 833.379 722.843 833.599 717.058Z"></path>
<path fill="#9A908A" d="M785.071 733.006C793.32 731.378 801.679 732.94 809.907 733.93C800.8 735.052 791.494 735.382 782.409 733.71L785.071 733.006Z"></path>
<path fill="#374354" d="M584.117 756.611C597.712 752.871 612.143 752.805 626.024 754.785C626.398 755.885 627.19 758.106 627.564 759.206C621.844 762.968 614.607 761.142 608.161 761.45C599.846 761.604 591.861 759.316 584.117 756.611Z"></path>
<path fill="#343F50" d="M549.8 781.029C549.866 777.069 554.64 777.003 557.499 777.047C569.928 777.179 582.401 776.717 594.83 777.179C597.954 776.871 600.792 779.533 600.528 782.722C601.144 794.689 599.824 806.766 601.386 818.712C603.3 830.965 601.914 843.416 602.332 855.757C606.335 856.351 612.077 859.342 608.359 864.05C587.879 866.008 567.025 864.798 546.412 865.018C542.936 865.854 538.669 861.08 542.408 858.462C545.576 855.625 550.57 857.384 554.53 856.746C554.442 846.033 554.442 835.298 554.442 824.585C552.902 824.167 549.866 823.287 548.326 822.869C550.174 809.032 549.052 794.953 549.8 781.029ZM557.697 785.582C557.631 795.679 557.631 805.777 557.631 815.874C568.96 815.896 580.311 815.94 591.641 815.632C591.729 805.623 591.839 795.613 591.949 785.626C580.531 785.494 569.114 785.538 557.697 785.582ZM562.537 823.903C562.471 834.88 562.471 845.835 562.493 856.834C567.442 856.79 572.392 856.768 577.342 856.768C577.826 845.901 577.694 835.034 577.716 824.189C572.656 824.079 567.596 823.991 562.537 823.903ZM584.623 823.705C584.381 834.572 584.293 845.461 584.711 856.35C587.989 856.24 591.267 856.174 594.566 856.108C594.654 845.197 594.676 834.308 594.786 823.397C591.377 823.463 588.011 823.573 584.623 823.705Z"></path>
<path fill="#3EBD8A" d="M557.697 785.582C569.114 785.538 580.531 785.494 591.948 785.626C591.838 795.613 591.728 805.622 591.64 815.632C580.311 815.94 568.96 815.896 557.631 815.874C557.631 805.776 557.631 795.679 557.697 785.582Z"></path>
<path fill="#6A798D" d="M325.682 811.76C333.909 804.83 342.049 797.813 350.122 790.708C364.113 795.173 378.61 797.571 393.106 799.749C378.412 814.51 358.745 823.023 339.013 828.808C333.997 823.595 329.532 817.875 325.682 811.76Z"></path>
<path fill="#6A798E" d="M449.004 800.342C459.145 797.571 469.705 796.801 480 794.777C479.582 807.712 478.482 820.647 477.58 833.582C471.882 836.442 465.811 838.465 459.607 839.917C455.098 827.026 450.918 813.893 449.004 800.342Z"></path>
<path fill="#FFDF4B" d="M307.643 823.397C311.009 820.757 314.397 818.161 317.784 815.565C321.854 821.769 326.43 827.62 331.423 833.12C329.708 836.2 328.036 839.279 326.364 842.425C318.554 837.828 312.439 831.008 307.643 823.397Z"></path>
<path fill="#F27373" d="M562.537 823.902C567.596 823.99 572.656 824.078 577.716 824.188C577.694 835.033 577.826 845.901 577.342 856.768C572.392 856.768 567.442 856.79 562.493 856.834C562.471 845.835 562.471 834.879 562.537 823.902Z"></path>
<path fill="#FDDD4E" d="M584.623 823.704C588.011 823.573 591.377 823.462 594.786 823.396C594.676 834.308 594.654 845.197 594.566 856.108C591.267 856.174 587.989 856.24 584.711 856.35C584.293 845.461 584.381 834.572 584.623 823.704Z"></path>
<path fill="#FDDC49" d="M461.477 847.771C467.922 846.693 474.302 845.241 480.505 843.173C482.837 846.429 485.213 849.684 487.589 852.94C480.043 855.668 472.19 857.582 464.139 857.934C463.259 854.524 462.379 851.136 461.477 847.771Z"></path>
<path fill="#D1EDFF" d="M464.799 873.751C476.986 872.101 488.997 869.285 501.096 867.063C506.243 870.077 511.633 873.332 517.836 873.376C530.287 873.97 542.804 873.574 555.255 874.63C577.562 876.434 600.374 877.072 621.712 884.53C616.938 889.523 610.339 891.745 603.717 893.065C563.923 901.49 523.116 903.228 482.573 904.592C414.973 905.736 347.064 903.91 280.102 893.835C265.473 891.129 249.986 889.875 236.985 881.956C247.5 876.082 259.929 876.632 271.544 875.312C303.728 873.222 336.021 872.695 368.248 873.619C375.816 873.839 383.559 873.926 390.775 871.353C399.112 868.361 408.043 869.153 416.711 869.263C430.371 869.505 444.032 869.087 457.693 869.439C459.519 871.507 461.477 874.762 464.799 873.751Z"></path>
</svg>
